<svg width="80" height="80" viewBox="0 0 80 80" fill="none" xmlns="http://www.w3.org/2000/svg">
<path fill-rule="evenodd" clip-rule="evenodd" d="M69.3685 46.941C68.9485 45.6476 68.2202 44.4626 67.2068 43.391C66.1452 42.271 64.7502 41.4043 63.0202 40.7776C61.2885 40.156 59.0652 39.841 56.3252 39.841H52.6068C53.0502 35.2643 54.6802 31.3693 57.5002 28.1493C60.3152 24.9393 64.2185 22.1143 69.2085 19.691L66.1819 15.001C59.6119 17.7993 53.9902 21.8926 49.3202 27.2993C44.6518 32.711 42.3268 38.0726 42.3268 43.391C42.3268 49.1043 43.6752 53.586 46.3935 56.821C49.1118 60.056 53.0052 61.6676 58.0668 61.6676C61.2785 61.6676 64.0685 60.596 66.4419 58.4543C68.8119 56.316 70.0002 53.811 70.0002 50.9543C70.0002 49.576 69.7918 48.2343 69.3685 46.941ZM35.3752 46.941C34.9518 45.6476 34.2252 44.4626 33.2102 43.391C32.1518 42.271 30.7552 41.4043 29.0235 40.7776C27.2952 40.156 25.0718 39.841 22.3302 39.841H18.6102C19.0552 35.2643 20.6835 31.3693 23.5019 28.1493C26.3185 24.9393 30.2252 22.1143 35.2119 19.691L32.1868 15.001C25.6152 17.7993 19.9968 21.8926 15.3252 27.2993C10.6568 32.711 8.3335 38.0726 8.3335 43.391C8.3335 49.1043 9.67849 53.586 12.3985 56.821C15.1135 60.056 19.0069 61.6676 24.0719 61.6676C27.2819 61.6676 30.0752 60.596 32.4485 58.4543C34.8185 56.316 36.0052 53.811 36.0052 50.9543C36.0052 49.576 35.7935 48.2343 35.3752 46.941Z" fill="#A8DADC" fill-opacity="0.25"/>
</svg>
