<svg width="25" height="25" viewBox="0 0 25 25" fill="none" xmlns="http://www.w3.org/2000/svg">
<path d="M24.2426 6.23754C24.2412 5.81345 24.2024 5.39031 24.1266 4.97304C24.0296 4.46354 23.8931 3.96704 23.6491 3.50654C23.395 3.02119 23.0643 2.58002 22.6696 2.20004C22.0735 1.61653 21.3372 1.19637 20.5316 0.980039C19.7901 0.780039 19.0316 0.738039 18.2711 0.739039C18.2686 0.735688 18.267 0.731711 18.2666 0.727539H6.72961C6.72961 0.731539 6.72961 0.735539 6.72961 0.739039C6.29711 0.747039 5.86361 0.743539 5.43361 0.797039C4.96205 0.847056 4.49782 0.951243 4.05011 1.10754C3.35377 1.36439 2.7253 1.77688 2.21261 2.31354C1.62492 2.91078 1.20171 3.64989 0.984107 4.45904C0.787107 5.19504 0.744107 5.94554 0.743107 6.70154L0.735107 18.285C0.749107 18.8075 0.753607 19.335 0.841607 19.853C0.935107 20.403 1.06861 20.9385 1.32361 21.4375C1.66282 22.106 2.1461 22.6909 2.73861 23.15C3.1616 23.4872 3.64079 23.747 4.15411 23.9175C4.91011 24.1615 5.69011 24.255 6.48161 24.2595C6.97561 24.2625 7.46861 24.275 7.96261 24.273C9.73511 24.2655 11.5071 24.273 13.2796 24.273V16.411H10.6356V13.25H13.2801V10.985C13.2801 10.985 13.0891 7.22254 16.7971 6.92254H19.6051V9.78504H17.5601C17.5601 9.78504 16.6881 9.95004 16.5501 10.767V13.1935H19.4676L19.1406 16.22H16.4971V24.27C17.2394 24.2664 17.9819 24.26 18.7246 24.251C19.1985 24.2406 19.6706 24.1905 20.1361 24.101C21.0162 23.9459 21.8352 23.5471 22.5001 22.95C23.2891 22.246 23.8216 21.385 24.0621 20.3455C24.2196 19.666 24.2586 18.9765 24.2656 18.285V18.147C24.2651 18.0935 24.2446 6.39204 24.2426 6.23754Z" fill="#1C1B20"/>
</svg>
