<svg width="25" height="25" viewBox="0 0 25 25" fill="none"
  xmlns="http://www.w3.org/2000/svg">
  <g clip-path="url(#clip0)">
    <path class="vector" fill-rule="evenodd" clip-rule="evenodd" d="M12.5024 0C5.60166 0 0.00634766 5.59531 0.00634766 12.4977C0.00634766 18.0187 3.58604 22.7031 8.55322 24.3563C9.17822 24.4703 9.3751 24.1 9.3751 23.7687C9.3751 23.4719 9.38135 22.6422 9.3751 21.5992C5.89932 22.3547 5.179 19.9531 5.179 19.9531C4.61104 18.5094 3.79229 18.125 3.79229 18.125C2.65791 17.35 3.87744 17.3648 3.87744 17.3648C5.13135 17.4531 5.79229 18.6531 5.79229 18.6531C6.90713 20.5617 8.7165 20.0102 9.42822 19.6914C9.54228 18.8836 9.86572 18.3328 10.2228 18.0203C7.44775 17.7047 4.53057 16.6328 4.53057 11.8438C4.53057 10.4789 5.01729 9.36406 5.8165 8.49063C5.6876 8.175 5.25791 6.90391 5.93916 5.18281C5.93916 5.18281 6.98838 4.84687 9.3751 6.46484C10.372 6.1875 11.4415 6.04922 12.504 6.04453C13.5657 6.04922 14.6345 6.1875 15.6329 6.46484C18.0196 4.84766 19.0673 5.18281 19.0673 5.18281C19.7485 6.90391 19.3196 8.175 19.1915 8.49063C19.9907 9.36406 20.4759 10.4789 20.4759 11.8438C20.4759 16.6453 17.554 17.7016 14.7696 18.0102C15.2181 18.3969 15.6251 19.1469 15.6251 20.3125C15.6251 21.875 15.6251 23.3609 15.6251 23.7719C15.6251 24.1062 15.8267 24.4758 16.461 24.3547C21.4235 22.6992 25.0001 18.0172 25.0001 12.4977C25.0001 5.59531 19.4048 0 12.5024 0Z" fill="#1C1B20"/>
  </g>
  <defs>
    <clipPath id="clip0">
      <rect width="25" height="25" fill="white"/>
    </clipPath>
  </defs>
</svg>
