<svg width="25" height="25" viewBox="0 0 25 25" fill="none" xmlns="http://www.w3.org/2000/svg">
<path d="M2.5 0C1.115 0 0 1.115 0 2.5V22.5C0 23.885 1.115 25 2.5 25H22.5C23.885 25 25 23.885 25 22.5V2.5C25 1.115 23.885 0 22.5 0H2.5ZM3.95312 2.55781H21.1234C21.9065 2.55781 22.5375 3.1888 22.5375 3.97187V21.1484C22.5375 21.9315 21.9065 22.5609 21.1234 22.5609H3.95312C3.17005 22.5609 2.54063 21.9315 2.54063 21.1484V3.97187C2.54063 3.1888 3.17005 2.55781 3.95312 2.55781ZM6.99531 5.28906C6.03621 5.28906 5.25938 6.06589 5.25938 7.025C5.25938 7.98411 6.03621 8.7625 6.99531 8.7625C7.95442 8.7625 8.73125 7.98411 8.73125 7.025C8.73125 6.06589 7.95442 5.28906 6.99531 5.28906ZM16.0891 9.81094C15.893 9.81024 15.7021 9.81839 15.4531 9.83125C14.9072 9.85946 13.6325 10.4496 13.1656 11.3922C13.1656 10.983 13.1703 10.6077 13.1703 10.0469C12.6111 10.0469 11.8799 10.05 10.3516 10.05C10.3516 11.7626 10.3328 17.8281 10.3328 19.5953H13.2922C13.2922 18.5469 13.3063 15.9131 13.3063 14.2594C13.3063 13.7041 13.642 12.4219 15.0219 12.4219C16.2748 12.4219 16.6266 13.4758 16.6266 14.2594C16.6266 15.9816 16.6141 18.4166 16.6141 19.5953H19.5906C19.5906 18.4431 19.601 15.3137 19.5656 13.3391C19.5227 10.9415 18.0639 9.91823 16.7547 9.8375C16.4853 9.82089 16.2852 9.81164 16.0891 9.81094ZM5.50938 10.0875V19.5906H8.47656V10.0875H5.50938Z" fill="#1C1B20"/>
</svg>
