<svg width="30" height="30" viewBox="0 0 30 30" fill="none" xmlns="http://www.w3.org/2000/svg">
<path d="M27.9726 13.0039C27.994 11.6623 26.8657 10.6111 25.5535 10.6966C24.3096 10.7781 23.3631 11.8523 23.4357 13.0949C21.9972 12.4262 20.3033 12.2249 18.5885 12.5464C18.0012 12.6565 17.3903 12.7182 16.7727 12.7296L15.8356 12.7471C15.6767 12.7501 15.518 12.7538 15.3595 12.7575C14.5867 12.7756 13.8566 12.7928 13.1351 12.7242C12.3579 12.6504 11.5817 12.409 10.8767 12.0242C10.9744 11.714 11.1101 11.4924 11.2668 11.4071C14.2739 9.76849 16.1106 7.44114 16.5782 4.67663C16.6112 4.4821 16.5407 4.29601 16.3897 4.17894C16.2239 4.05044 15.9338 3.95024 15.0384 4.18181C14.5892 4.298 14.1008 4.47032 13.8692 4.57351C13.7017 4.6481 13.5399 4.72696 13.3813 4.80811C13.3931 4.70745 13.3997 4.61311 13.4054 4.52868C13.4093 4.47167 13.4127 4.41853 13.4181 4.3696C13.4376 4.18649 13.3776 4.0563 13.323 3.97808C13.087 3.64292 12.5802 3.73116 12.1156 3.86188C11.7146 3.97462 11.2783 4.14888 11.0239 4.27163C9.92864 4.79974 9.32846 5.74298 9.06825 6.25819C8.85444 6.6813 8.66389 7.31335 8.2845 8.57206C8.19391 8.87101 8.10128 9.09155 7.95151 9.41821C7.81815 9.70884 7.33258 10.1526 7.03985 10.3797C5.85837 10.5641 4.75118 11.1664 3.93157 12.0864L2.79333 13.3637C2.31239 13.691 2.02698 14.2279 2.02698 14.8109C2.02698 14.9315 2.06073 15.6072 2.22028 15.9058C2.34502 16.1424 2.52971 16.3484 2.75635 16.5031L2.94397 16.6293C3.29336 16.8662 3.65067 17.0444 4.03633 17.1742L4.09598 17.194H4.09762C4.44456 17.3048 4.8134 17.3761 5.22157 17.4117C5.30565 17.4195 5.39629 17.4256 5.50786 17.4312C5.63606 17.4373 5.76971 17.4403 5.91643 17.4403C6.03215 17.4403 6.15004 17.437 6.26624 17.4306C6.35178 17.4259 6.43751 17.4194 6.52323 17.4112C7.74883 17.8334 8.52051 18.5365 9.01645 19.6836C9.30274 20.3454 9.44794 21.0668 9.44794 21.8275V23.9028C8.59546 24.1527 7.97085 24.9413 7.97085 25.8734V26.2543H10.976L12.4701 22.9633C12.8418 23.1134 13.2245 23.2383 13.6102 23.3352C14.4319 23.5418 15.3 23.6246 16.1928 23.5844C16.2971 23.6756 16.4052 23.7619 16.5175 23.8418H14.2261C13.1036 23.8418 12.1936 24.7518 12.1936 25.8743V26.2547H19.1075C19.3178 26.2547 19.4883 26.0842 19.4883 25.8739V25.8737C19.4883 25.6634 19.3178 25.4929 19.1075 25.4929H13.0137C13.176 24.978 13.6581 24.6035 14.2261 24.6035H18.5215C18.733 24.6035 18.9044 24.432 18.9044 24.2205V24.2051C18.9044 24.0064 18.7522 23.8442 18.5546 23.8235C18.4386 23.8115 18.3234 23.7933 18.2098 23.7692C17.642 23.6508 17.1107 23.3824 16.6715 22.9918L16.6497 22.9728C16.2665 22.6252 15.9647 22.1894 15.7766 21.7117C15.7057 21.5321 15.65 21.3445 15.6113 21.1541C15.6077 21.1361 15.6041 21.1182 15.6002 21.0961C15.5628 20.8959 15.5438 20.689 15.5438 20.481C15.5438 18.7438 16.8688 17.3101 18.5614 17.1377C18.7551 17.118 18.9044 16.9589 18.9044 16.7642V16.7524C18.9044 16.5304 18.7125 16.3571 18.4915 16.3791C16.4116 16.5869 14.782 18.3473 14.782 20.481C14.782 20.7358 14.8053 20.9899 14.8507 21.2319C14.8549 21.2557 14.8595 21.2795 14.8649 21.306C14.9125 21.5401 14.9809 21.7708 15.0682 21.9911C15.1841 22.2858 15.3356 22.5675 15.5171 22.8289C14.9247 22.812 14.3481 22.7353 13.7959 22.5963C13.3914 22.4948 12.9903 22.3593 12.604 22.1939L12.5986 22.1916C12.3514 22.0869 12.0647 22.1663 11.9065 22.3832L11.8813 22.4178L10.4854 25.4925H8.78993C8.95288 24.9655 9.44471 24.5815 10.0245 24.5815H10.2772C10.4876 24.5815 10.6581 24.411 10.6581 24.2007C10.6581 23.9903 10.4876 23.8198 10.2772 23.8198H10.2097V21.8275C10.2097 20.9621 10.0435 20.1391 9.71565 19.3812C9.28786 18.3917 8.66518 17.6672 7.79682 17.157C8.10005 17.0637 8.39612 16.9487 8.68112 16.8121L8.73268 16.7874C8.92235 16.6966 9.00251 16.4692 8.91174 16.2795C8.82092 16.0898 8.59346 16.0095 8.40374 16.1004L8.35159 16.1254C7.97454 16.306 7.57522 16.4451 7.1653 16.5386C6.85569 16.6088 6.5394 16.653 6.22475 16.6699C6.12198 16.6756 6.01827 16.6784 5.91649 16.6784C5.78202 16.6784 5.6602 16.6758 5.54512 16.6702C5.44528 16.6653 5.36454 16.6598 5.28948 16.6529C4.91653 16.6204 4.58612 16.5546 4.27932 16.4519L4.25735 16.4445C3.95506 16.3408 3.67264 16.1995 3.39461 16.0138C3.60104 15.8726 3.77313 15.6812 3.88979 15.4536C4.07465 15.0929 4.10799 14.6829 3.98372 14.2994C3.90104 14.0442 3.75385 13.8225 3.55915 13.649L4.50028 12.5929C5.3285 11.6632 6.49674 11.1126 7.70436 11.0823C7.74538 11.0813 7.78639 11.0809 7.82794 11.0809H8.38083C8.82591 11.1108 9.23243 10.8248 9.35249 10.3943C9.68038 9.21905 11.1111 6.63554 14.1791 5.26895C14.5682 5.09569 15.375 4.8527 15.7789 4.808C15.2801 7.25171 13.6408 9.24571 10.9023 10.7379C10.1867 11.1278 10.0093 12.2103 9.96725 12.8208C9.96257 12.8885 9.96268 12.9764 9.96637 13.069C9.97575 13.305 10.1939 13.4767 10.4251 13.4283C10.607 13.3902 10.7352 13.2262 10.7275 13.0404C10.7248 12.975 10.7243 12.9144 10.7272 12.8731C10.7287 12.851 10.7308 12.8297 10.7327 12.8079C11.4678 13.1747 12.2644 13.4064 13.0629 13.4823C13.8295 13.5553 14.6164 13.5368 15.3774 13.5188C15.5347 13.5151 15.6921 13.5115 15.8498 13.5085L16.787 13.4911C17.4467 13.4788 18.1001 13.4128 18.729 13.2949C20.8336 12.9006 22.8949 13.3669 24.3842 14.575C25.683 15.6286 26.42 17.1699 26.4592 18.915C26.4604 18.9641 26.4609 19.0134 26.4609 19.0627C26.4609 22.4884 23.7681 25.2969 20.388 25.4826C20.1874 25.4936 20.0313 25.6614 20.0313 25.8623C20.0313 26.081 20.2153 26.255 20.4336 26.2429C24.2126 26.0335 27.2226 22.893 27.2226 19.0627C27.2226 19.0076 27.2219 18.9526 27.2208 18.8978C27.1898 17.5213 26.7723 16.2556 26.0217 15.2097C26.6039 15.1278 27.1274 14.8276 27.4959 14.3547C27.7965 13.9694 27.9648 13.4925 27.9726 13.0039ZM3.01323 14.1839C3.12778 14.2724 3.21344 14.3931 3.2592 14.5344C3.32061 14.7239 3.30385 14.9271 3.21204 15.1063C3.13528 15.256 3.01047 15.3736 2.86194 15.4441C2.82444 15.2793 2.78881 14.9898 2.78881 14.8109C2.78881 14.578 2.86967 14.3581 3.01323 14.1839ZM8.61889 10.1897C8.59557 10.2733 8.51547 10.3282 8.42846 10.3208L8.22901 10.3203C8.39823 10.1351 8.55391 9.93173 8.64385 9.73567C8.80434 9.38563 8.91081 9.13169 9.01364 8.79225C9.36878 7.61405 9.56442 6.96495 9.74811 6.60149C9.92266 6.25602 10.4286 5.40407 11.3549 4.95747C11.7641 4.76007 12.3334 4.5711 12.6426 4.51919C12.622 4.81661 12.5882 5.14655 12.3311 5.42821C10.0494 6.97222 8.91901 9.11399 8.61889 10.1897ZM24.1965 13.0613C24.1451 12.2759 24.707 11.5898 25.4703 11.4717C25.6949 11.6871 25.8326 11.9797 25.8532 12.2938C25.875 12.6277 25.7656 12.9501 25.5449 13.2017C25.3242 13.4533 25.0186 13.6039 24.6844 13.6258C24.5691 13.6335 24.4538 13.6243 24.3407 13.6003C24.3376 13.5982 24.3346 13.5963 24.3315 13.5942C24.2545 13.4274 24.2088 13.2488 24.1965 13.0613ZM26.8367 13.9574C26.571 14.2603 26.203 14.4416 25.8005 14.468C25.652 14.4778 25.5044 14.4645 25.3607 14.4314C25.3143 14.3851 25.267 14.3394 25.2191 14.2944C25.5636 14.1844 25.8729 13.9828 26.1176 13.704C26.4725 13.2995 26.6485 12.781 26.6133 12.244C26.6005 12.0485 26.5589 11.8585 26.4925 11.6785C26.8941 11.9266 27.1747 12.3582 27.2078 12.8639C27.2342 13.2662 27.1024 13.6545 26.8367 13.9574Z" fill="#201B1B"/>
<path d="M5.42488 12.5564C5.25841 12.6073 5.1649 12.783 5.21599 12.9488C5.26708 13.1146 5.44345 13.2078 5.60991 13.1569C5.77638 13.106 5.86995 12.9303 5.8188 12.7645C5.76777 12.5987 5.5914 12.5055 5.42488 12.5564Z" fill="#201B1B"/>
</svg>
