<svg width="25" height="25" viewBox="0 0 25 25" fill="none" xmlns="http://www.w3.org/2000/svg">
<path d="M7.86201 22.6575C17.296 22.6575 22.456 14.8416 22.456 8.06353C22.456 7.84155 22.456 7.62056 22.441 7.40054C23.4448 6.67441 24.3114 5.77544 25 4.74556C24.0639 5.16035 23.0708 5.43232 22.054 5.55254C23.1245 4.91172 23.9262 3.90303 24.309 2.71553C23.3022 3.31294 22.2006 3.73403 21.052 3.96055C20.0822 2.92925 18.7277 2.34375 17.3121 2.34375C14.4956 2.34375 12.1781 4.66133 12.1781 7.47773C12.1781 7.86846 12.2227 8.25796 12.311 8.63853C8.18901 8.43193 4.34321 6.48223 1.73999 3.27954C0.386279 5.60991 1.08672 8.62993 3.32798 10.1265C2.51182 10.1023 1.71318 9.88213 1 9.48452V9.54951C1.00068 11.9818 2.73081 14.0959 5.11499 14.5775C4.35991 14.7834 3.56748 14.8135 2.79902 14.6655C3.46929 16.7498 5.4021 18.1864 7.59102 18.2275C5.7751 19.6546 3.53062 20.4298 1.221 20.4275C0.812891 20.4268 0.405176 20.4021 0 20.3535C2.34541 21.8586 5.0752 22.6572 7.86201 22.6535" fill="#1C1B20"/>
</svg>
