<svg width="22" height="25" viewBox="0 0 22 25" fill="none" xmlns="http://www.w3.org/2000/svg">
<g clip-path="url(#clip0)">
<path d="M0.934981 18.2175L10.8097 23.9189L20.685 18.2175V6.81507L10.8097 1.1139L0.934981 6.81507V18.2175V18.2175ZM10.8097 24.9982L0 18.7571V6.27542L10.8097 0.0341644L21.62 6.27542V18.7571L10.8097 24.9982Z" fill="#A1070C"/>
<path d="M0.808899 6.74217L10.8099 0.968109L20.8109 6.74217V18.2904L10.8099 24.0644L0.808899 18.2904V6.74217Z" fill="url(#paint0_linear)"/>
<path d="M15.3985 8.29102C15.3985 8.74471 15.309 9.19535 15.13 9.64296C14.951 10.0904 14.7083 10.5096 14.4092 10.8875C14.1093 11.2681 13.7583 11.6055 13.3662 11.8903C12.9722 12.1768 12.5633 12.3826 12.1395 12.508L11.9516 12.1947C12.2038 12.0683 12.4361 11.9053 12.6409 11.7112C12.8496 11.5145 13.0304 11.2901 13.1781 11.0442C13.3268 10.7977 13.4427 10.5328 13.5228 10.2563C13.603 9.98139 13.6437 9.69652 13.6437 9.4102C13.6437 9.08193 13.5959 8.77156 13.5004 8.4791C13.405 8.18656 13.2647 7.93142 13.0797 7.71353C12.8946 7.49564 12.6663 7.32412 12.3948 7.19879C12.1232 7.07337 11.8112 7.01071 11.4591 7.01071C11.0293 7.01071 10.6354 7.09432 10.2773 7.26145C9.91917 7.42858 9.59681 7.65391 9.31026 7.93742C9.0238 8.22093 8.77457 8.54624 8.56268 8.91328C8.35062 9.28077 8.17378 9.66749 8.03451 10.0683C7.89548 10.4663 7.78917 10.875 7.71662 11.2904C7.64501 11.7023 7.6092 12.0902 7.6092 12.4543C7.6092 12.8244 7.64805 13.2064 7.72557 13.6004C7.80417 13.9977 7.91804 14.3872 8.06584 14.7643C8.21355 15.1433 8.39956 15.5063 8.62095 15.8476C8.8418 16.1879 9.09693 16.4863 9.38644 16.743C9.67363 16.9982 10.0002 17.2053 10.3534 17.3563C10.7086 17.5084 11.0949 17.5845 11.5128 17.5845C11.7994 17.5845 12.0784 17.5457 12.3499 17.4682C12.6211 17.3908 12.8836 17.2858 13.1334 17.1548C13.3851 17.0229 13.6234 16.867 13.8452 16.6893C14.0674 16.5117 14.2754 16.3171 14.4674 16.1073L14.7628 16.3937C14.5002 16.74 14.1884 17.0728 13.8273 17.392C13.4655 17.7118 13.0743 17.9966 12.6589 18.2426C12.2453 18.4884 11.8053 18.6866 11.3472 18.8335C10.8906 18.9798 10.4385 19.0529 9.99079 19.0529C9.55501 19.0529 9.14465 18.9768 8.75971 18.8246C8.37679 18.6736 8.01905 18.4653 7.69872 18.2068C7.37644 17.9472 7.08837 17.6427 6.83476 17.2936C6.58168 16.9454 6.36564 16.5718 6.19012 16.1788C6.01494 15.7876 5.87994 15.3797 5.78719 14.9612C5.69472 14.5435 5.64844 14.1345 5.64844 13.7346C5.64844 13.1556 5.74539 12.5602 5.93938 11.9485C6.13337 11.3367 6.4005 10.7428 6.74076 10.1667C7.08094 9.59076 7.48235 9.04604 7.9449 8.53281C8.40754 8.01951 8.90598 7.57173 9.44015 7.18983C9.97432 6.80777 10.5325 6.50492 11.1144 6.28111C11.6963 6.05723 12.2769 5.94533 12.8558 5.94533C13.2139 5.94533 13.5482 5.99752 13.8586 6.10199C14.169 6.20646 14.4375 6.35712 14.6644 6.55415C14.8912 6.7511 15.0703 6.99585 15.2016 7.28831C15.3329 7.58077 15.3985 7.91495 15.3985 8.29102V8.29102Z" fill="#A1070C"/>
</g>
<defs>
<linearGradient id="paint0_linear" x1="10.8099" y1="11.4139" x2="10.8099" y2="24.0644" gradientUnits="userSpaceOnUse">
<stop stop-color="#F7F6F3"/>
<stop offset="1" stop-color="#FEF6D5"/>
</linearGradient>
<clipPath id="clip0">
<rect width="21.62" height="25" fill="white"/>
</clipPath>
</defs>
</svg>
