<svg width="18" height="25" viewBox="0 0 18 25" fill="none" xmlns="http://www.w3.org/2000/svg">
<g clip-path="url(#clip0)">
<path d="M13.879 0.925066H12.4099L13.938 2.58418V3.37324H10.7898V2.44917H12.3179L10.7898 0.790056V0H13.88L13.879 0.925066ZM10.1647 0.925066H8.69362L10.2237 2.58418V3.37324H7.0745V2.44917H8.60261L7.0745 0.790056V0H10.1647V0.925066ZM6.48646 0.963068H4.90134V2.41117H6.48646V3.37424H3.77325V0H6.48646V0.963068Z" fill="#131313"/>
<path d="M1.61213 22.9928L0 4.91437H17.7114L16.0973 22.9898L8.84471 24.9999L1.61213 22.9928Z" fill="#1572B6"/>
<path d="M8.85571 23.4639L14.7162 21.8388L16.0943 6.39246H8.85571V23.4639Z" fill="#33A9DC"/>
<path d="M8.85571 12.942H11.7899L11.992 10.6718H8.85571V8.45569H14.4162L14.3632 9.05073L13.8181 15.1611H8.85571V12.942Z" fill="white"/>
<path d="M8.86777 18.7005H8.85777L6.38855 18.0335L6.23054 16.2653H4.00635L4.31737 19.7466L8.85977 21.0107H8.87277V18.7005H8.86777Z" fill="#EBEBEB"/>
<path d="M11.6019 15.0642L11.3349 18.0315L8.86169 18.6985V21.0087L13.4071 19.7486L13.4401 19.3736L13.8261 15.0632H11.6019V15.0642Z" fill="white"/>
<path d="M8.86365 8.45569V10.6728H3.50922L3.46322 10.1748L3.36221 9.05073L3.3092 8.45569H8.86365ZM8.85565 12.942V15.1591H6.41445L6.37145 14.6611L6.27044 13.537L6.21744 12.942H8.85465H8.85565Z" fill="#EBEBEB"/>
</g>
<defs>
<clipPath id="clip0">
<rect width="17.7114" height="25" fill="white"/>
</clipPath>
</defs>
</svg>
