<svg width="18" height="25" viewBox="0 0 18 25" fill="none" xmlns="http://www.w3.org/2000/svg">
<g clip-path="url(#clip0)">
<path d="M1.55121 22.991L0 4.91376H17.0455L15.4925 22.9882L8.51227 24.9988L1.55121 22.991Z" fill="#E44D26"/>
<path d="M8.52271 23.462L14.163 21.8372L15.4902 6.39191H8.52271V23.462Z" fill="#F16529"/>
<path d="M8.52275 13.0965H5.6991L5.50404 10.8261H8.52275V8.60901H3.17188L3.22301 9.20382L3.74747 15.3135H8.52275V13.0965ZM8.52275 18.8545L8.51338 18.8571L6.13685 18.1904L5.98492 16.4222H3.84285L4.14184 19.9034L8.51299 21.1641L8.52275 21.1613V18.8545Z" fill="#EBEBEB"/>
<path d="M1.58594 0.00115967H2.67034V1.11431H3.66231V0.00115967H4.74675V3.3721H3.66231V2.24333H2.67034V3.3721H1.58602L1.58594 0.00115967ZM6.17287 1.11906H5.21825V0.00115967H8.21255V1.11906H7.25746V3.3721H6.17291V1.11906H6.17287ZM8.68769 0.00115967H9.81851L10.5141 1.18564L11.209 0.00115967H12.3402V3.3721H11.26V1.70124L10.514 2.8998H10.4953L9.74874 1.70124V3.3721H8.68766V0.00115967H8.68769ZM12.8798 0.00115967H13.9645V2.2579H15.4896V3.3721H12.8798V0.00115967Z" fill="black"/>
<path d="M8.51538 13.0965V15.3135H11.1431L10.8954 18.189L8.51538 18.8563V21.1629L12.89 19.9033L12.922 19.5287L13.4235 13.6919L13.4756 13.0965H12.9006H8.51538ZM8.51538 8.60901V10.8261H13.6698L13.7125 10.3278L13.8098 9.20382L13.8608 8.60901H8.51538Z" fill="white"/>
</g>
<defs>
<clipPath id="clip0">
<rect width="17.0455" height="25" fill="white"/>
</clipPath>
</defs>
</svg>
