<svg width="22" height="25" viewBox="0 0 22 25" fill="none" xmlns="http://www.w3.org/2000/svg">
<g clip-path="url(#clip0)">
<path d="M20.6734 19.2237L11.3119 24.8017C11.1145 24.9202 10.8902 24.9827 10.6618 24.9827C10.4334 24.9827 10.209 24.9202 10.0116 24.8017L0.650118 19.2237C0.247053 18.9823 0 18.5399 0 18.0706V6.91458C0 6.43191 0.247053 6.00285 0.650118 5.76147L10.0116 0.183465C10.209 0.0649391 10.4334 0.00249481 10.6618 0.00249481C10.8902 0.00249481 11.1145 0.0649391 11.3119 0.183465L20.6734 5.76147C21.0766 6.00285 21.3235 6.44531 21.3235 6.91458V18.0706C21.3105 18.5399 21.0635 18.9823 20.6734 19.2237V19.2237Z" fill="#8D6748"/>
<path d="M10.6488 1.69801C10.4538 1.69801 10.2587 1.75161 10.0897 1.85889L2.00237 6.67254C1.65129 6.87371 1.4433 7.26248 1.4433 7.66466V17.292C1.4433 17.7077 1.65129 18.0832 2.00237 18.2843L10.0897 23.098C10.2587 23.2053 10.4537 23.2589 10.6488 23.2589C10.8437 23.2589 11.0389 23.2053 11.2079 23.098L19.2953 18.2842C19.6463 18.0832 19.8543 17.6943 19.8543 17.2921V7.66466C19.8543 7.24908 19.6463 6.87371 19.2953 6.67254L11.2079 1.85881C11.0388 1.75161 10.8438 1.69801 10.6488 1.69801V1.69801ZM10.6488 2.10027C10.7788 2.10027 10.8959 2.14047 11.0128 2.20755L19.1002 7.0212C19.3212 7.1552 19.4642 7.41006 19.4642 7.67823V17.3055C19.4642 17.5737 19.3212 17.8284 19.1002 17.9625L11.0129 22.7761C10.8959 22.8431 10.7788 22.8834 10.6488 22.8834C10.5202 22.8828 10.3942 22.8457 10.2847 22.776L2.19737 17.9626C1.9763 17.8285 1.83329 17.5738 1.83329 17.3056V7.67823C1.83329 7.41006 1.9763 7.15528 2.19729 7.02111L10.2847 2.20755C10.4017 2.14047 10.5317 2.10018 10.6486 2.10018L10.6488 2.10027ZM9.90116 10.494H10.9933C11.0324 10.494 11.0584 10.4805 11.0844 10.4537C11.7345 9.70285 11.7995 8.13401 11.7995 7.66474C11.7995 7.59774 11.7475 7.53066 11.6695 7.53066H9.22505C9.16008 7.53066 9.09503 7.58426 9.09503 7.66474C9.09503 8.12061 9.16008 9.68945 9.8102 10.4537C9.83619 10.4805 9.86218 10.494 9.90116 10.494V10.494ZM9.60213 7.94632H11.3184C11.3834 7.94632 11.4484 7.99992 11.4484 8.08041C11.4484 8.45587 11.3834 9.51508 10.9413 10.0648C10.9024 10.0917 10.8764 10.1051 10.8373 10.1051H10.0702C10.0312 10.1051 10.0052 10.0917 9.97921 10.0648C9.53708 9.52856 9.4851 8.45587 9.47211 8.08041C9.47211 8.01341 9.52408 7.94632 9.60213 7.94632ZM10.6943 7.26257C10.6943 7.26257 11.1624 6.98091 10.8763 6.47145C10.7073 6.20319 10.6293 5.9753 10.6943 5.88141C10.5253 6.09599 10.2393 6.32388 10.5513 6.80662C10.6554 6.92731 10.7073 7.182 10.6943 7.26248V7.26257ZM10.1742 7.30268C10.1742 7.30268 10.4862 7.115 10.2912 6.76634C10.1742 6.59205 10.1222 6.43116 10.1742 6.37748C10.0572 6.52496 9.87517 6.67245 10.0832 7.00771C10.1482 7.07471 10.1742 7.24908 10.1742 7.30268ZM10.1352 9.94422H10.7853C10.8113 9.94422 10.8373 9.93082 10.8633 9.90402C11.0844 9.63585 11.1884 9.22019 11.2404 8.85813C11.2404 8.85813 11.2274 8.97881 10.9154 9.0995C10.4864 9.26039 9.73215 9.1531 9.73215 9.1531C9.79712 9.43468 9.90124 9.70285 10.0572 9.90402C10.0702 9.93082 10.1092 9.94422 10.1352 9.94422ZM5.24638 13.712V11.0303H4.76535L3.97222 12.2907L3.17908 11.0303H2.69797V13.7254H3.15301V11.808L3.95914 13.0549H3.97214L4.79134 11.7946V13.712H5.24638V13.712ZM8.15896 11.0839C7.98987 11.0169 7.80787 10.9766 7.61288 10.9766C7.4178 10.9766 7.2358 11.0034 7.06671 11.084C6.89762 11.151 6.75469 11.2582 6.63766 11.3789C6.51476 11.5053 6.41752 11.6557 6.35162 11.8214C6.28665 11.9957 6.24751 12.1699 6.24751 12.3577V12.3711C6.24751 12.5588 6.28665 12.7466 6.35162 12.9075C6.4166 13.0818 6.50764 13.2292 6.62467 13.3499C6.7417 13.4706 6.88471 13.5779 7.05364 13.6449C7.22272 13.712 7.40481 13.7523 7.5998 13.7523C7.79488 13.7523 7.97688 13.7254 8.14597 13.6449C8.31497 13.5779 8.45799 13.4706 8.57494 13.3499C8.69785 13.2235 8.79512 13.0731 8.86105 12.9075C8.92603 12.7332 8.96509 12.5588 8.96509 12.3711V12.3577C8.96509 12.1699 8.92594 11.9823 8.86097 11.8214C8.796 11.6471 8.70504 11.4996 8.58801 11.379C8.47098 11.2582 8.32797 11.1509 8.15896 11.0839V11.0839ZM8.47098 12.3845C8.47098 12.5052 8.445 12.6259 8.40593 12.7466C8.35395 12.8538 8.30198 12.961 8.22393 13.0415C8.14407 13.1234 8.05185 13.1913 7.95089 13.2426C7.84677 13.2963 7.72983 13.3231 7.5998 13.3231C7.48286 13.3231 7.35283 13.2963 7.2488 13.2426C7.14784 13.1913 7.05563 13.1234 6.97575 13.0416C6.89771 12.9477 6.83274 12.8538 6.79367 12.7332C6.75469 12.6125 6.7287 12.4919 6.7287 12.3577V12.3443C6.7287 12.2236 6.75469 12.1029 6.79367 11.9822C6.84573 11.875 6.89771 11.7678 6.97575 11.6873C7.05562 11.6054 7.14783 11.5375 7.2488 11.4861C7.35283 11.4325 7.46978 11.4057 7.5998 11.4057C7.72974 11.4057 7.84685 11.4325 7.95089 11.4861C8.05186 11.5375 8.14407 11.6054 8.22393 11.6873C8.30198 11.7812 8.36695 11.875 8.40593 11.9956C8.445 12.1163 8.4709 12.237 8.4709 12.3711V12.3845H8.47098ZM10.3953 11.9822C10.4472 11.875 10.4993 11.7677 10.5773 11.6873C10.6572 11.6055 10.7494 11.5375 10.8503 11.4861C10.9543 11.4325 11.0584 11.4057 11.1884 11.4057C11.3444 11.4057 11.4744 11.4325 11.5915 11.4995C11.7085 11.5666 11.8125 11.6471 11.9165 11.7409L12.2156 11.3923C12.1505 11.3253 12.0856 11.2716 12.0205 11.2179C11.9555 11.1643 11.8775 11.1241 11.7995 11.0839C11.7085 11.057 11.6304 11.0302 11.5264 11.0034C11.4225 10.99 11.3184 10.9766 11.2014 10.9766C10.9933 10.9766 10.8243 11.0168 10.6553 11.0838C10.4863 11.1509 10.3433 11.2582 10.2263 11.3789C10.1115 11.5093 10.0192 11.6589 9.95322 11.8214C9.88508 11.9915 9.84974 12.1736 9.84918 12.3577V12.3711C9.84918 12.5588 9.88817 12.7331 9.95322 12.9075C10.0182 13.0818 10.1092 13.2292 10.2263 13.3499C10.3433 13.4706 10.4863 13.5779 10.6423 13.6449C10.8069 13.7165 10.9838 13.753 11.1624 13.7523C11.2794 13.7523 11.3964 13.7523 11.5134 13.7254C11.6045 13.712 11.7085 13.6717 11.7865 13.6315C11.8645 13.5913 11.9426 13.551 12.0205 13.484C12.0986 13.417 12.1635 13.3633 12.2286 13.2828L11.9296 12.9745C11.8125 13.0818 11.6955 13.1622 11.5915 13.2292C11.4874 13.2963 11.3444 13.3231 11.1884 13.3231C11.0714 13.3231 10.9543 13.2828 10.8503 13.2426C10.7464 13.2024 10.6553 13.1219 10.5773 13.0416C10.4993 12.9477 10.4342 12.8538 10.3953 12.7331C10.3563 12.6125 10.3302 12.4918 10.3302 12.3577V12.3443C10.3302 12.2236 10.3563 12.1029 10.3953 11.9822V11.9822ZM13.1388 11.0303V13.712H13.5938V12.5857H14.8421V13.712H15.2971V11.0302H14.8421V12.1432H13.5938V11.0302H13.1388V11.0303ZM18.1315 13.0684L18.3916 13.7121H18.8726L17.7285 11.0169H17.3123L16.1682 13.712H16.6363L16.9093 13.0683H18.1315V13.0684ZM17.5204 11.5801L17.9625 12.6528H17.0784L17.5204 11.5801V11.5801ZM2.37295 14.7041H18.9507V14.5566H2.37295V14.7041ZM11.9036 9.51499C11.9036 9.56859 11.8905 9.60888 11.8905 9.66256H18.9507V9.51499H11.9035H11.9036ZM9.00407 9.51499H2.37295V9.66256H9.01707C9.01707 9.60896 9.00399 9.56868 9.00399 9.51499H9.00407Z" fill="white"/>
</g>
<defs>
<clipPath id="clip0">
<rect width="21.3235" height="25" fill="white"/>
</clipPath>
</defs>
</svg>
