<svg width="30" height="19" viewBox="0 0 30 19" fill="none" xmlns="http://www.w3.org/2000/svg">
<g clip-path="url(#clip0)">
<path d="M14.8308 18.3454C14.7292 18.3454 14.6344 18.3183 14.5463 18.2709L13.6457 17.7359C13.5102 17.6614 13.5779 17.6343 13.6186 17.6208C13.8014 17.5598 13.8353 17.5463 14.0249 17.4379C14.0452 17.4244 14.0723 17.4312 14.0926 17.4447L14.7833 17.8578C14.8104 17.8713 14.8443 17.8713 14.8646 17.8578L17.5666 16.2935C17.5937 16.2799 17.6073 16.2528 17.6073 16.219V13.0971C17.6073 13.0632 17.5937 13.0361 17.5666 13.0226L14.8646 11.465C14.8375 11.4515 14.8037 11.4515 14.7833 11.465L12.0813 13.0226C12.0542 13.0361 12.0407 13.07 12.0407 13.0971V16.219C12.0407 16.246 12.0542 16.2799 12.0813 16.2935L12.8195 16.7201C13.219 16.9232 13.4696 16.6862 13.4696 16.4492V13.3679C13.4696 13.3273 13.5034 13.2867 13.5508 13.2867H13.8962C13.9368 13.2867 13.9775 13.3205 13.9775 13.3679V16.4492C13.9775 16.9842 13.6863 17.2957 13.1784 17.2957C13.0226 17.2957 12.9007 17.2957 12.5554 17.1264L11.8443 16.7201C11.6682 16.6185 11.5599 16.4289 11.5599 16.2257V13.1038C11.5599 12.9007 11.6682 12.7111 11.8443 12.6095L14.5463 11.0451C14.7156 10.9503 14.9459 10.9503 15.1152 11.0451L17.8172 12.6095C17.9933 12.7111 18.1016 12.9007 18.1016 13.1038V16.2257C18.1016 16.4289 17.9933 16.6185 17.8172 16.7201L15.1152 18.2844C15.0271 18.3251 14.9256 18.3454 14.8308 18.3454ZM15.6637 16.1986C14.4786 16.1986 14.2348 15.6569 14.2348 15.1964C14.2348 15.1558 14.2687 15.1151 14.3161 15.1151H14.6682C14.7089 15.1151 14.7427 15.1422 14.7427 15.1828C14.7969 15.5418 14.9526 15.7178 15.6705 15.7178C16.2393 15.7178 16.4831 15.5892 16.4831 15.2844C16.4831 15.1084 16.4154 14.9797 15.5283 14.8916C14.7901 14.8172 14.3296 14.6546 14.3296 14.0655C14.3296 13.5169 14.7901 13.1919 15.5621 13.1919C16.4289 13.1919 16.8556 13.4898 16.9098 14.14C16.9098 14.1603 16.903 14.1806 16.8894 14.2009C16.8759 14.2144 16.8556 14.228 16.8353 14.228H16.4831C16.4493 14.228 16.4154 14.2009 16.4086 14.167C16.3274 13.7946 16.1174 13.6727 15.5621 13.6727C14.9391 13.6727 14.8646 13.8894 14.8646 14.0519C14.8646 14.2483 14.9526 14.3093 15.7924 14.4176C16.6253 14.526 17.0181 14.6817 17.0181 15.2641C17.0113 15.86 16.5238 16.1986 15.6637 16.1986Z" fill="#539E43"/>
<path d="M6.44696 6.13545C6.44696 6.01356 6.37924 5.89843 6.27089 5.83748L3.39955 4.18511C3.35215 4.15802 3.29797 4.14448 3.2438 4.13771H3.21671C3.16253 4.13771 3.10836 4.15802 3.06095 4.18511L0.189622 5.83748C0.0812699 5.89843 0.0135498 6.01356 0.0135498 6.13545L0.0203218 10.5779C0.0203218 10.6388 0.0541819 10.6998 0.108358 10.7269C0.162534 10.7607 0.230254 10.7607 0.277658 10.7269L1.9842 9.75171C2.09256 9.69076 2.16028 9.57564 2.16028 9.45374V7.37473C2.16028 7.25284 2.228 7.13771 2.33635 7.07676L3.06095 6.6569C3.11513 6.62304 3.17608 6.60949 3.23703 6.60949C3.29797 6.60949 3.35892 6.62304 3.40633 6.6569L4.13093 7.07676C4.23928 7.13771 4.307 7.25284 4.307 7.37473V9.45374C4.307 9.57564 4.37472 9.69076 4.48308 9.75171L6.18962 10.7269C6.2438 10.7607 6.31152 10.7607 6.36569 10.7269C6.41987 10.6998 6.45373 10.6388 6.45373 10.5779L6.44696 6.13545Z" fill="#F1FAEE"/>
<path d="M20.2484 0.020316C20.1942 -0.00677201 20.1265 -0.00677201 20.0791 0.020316C20.0249 0.0541761 19.991 0.108352 19.991 0.1693V4.57111C19.991 4.61174 19.9707 4.65237 19.9301 4.67946C19.8894 4.69977 19.8488 4.69977 19.8082 4.67946L19.0903 4.26637C18.982 4.20542 18.8533 4.20542 18.745 4.26637L15.8736 5.92551C15.7653 5.98646 15.6976 6.10158 15.6976 6.22348V9.53499C15.6976 9.65688 15.7653 9.77201 15.8736 9.83296L18.745 11.4921C18.8533 11.553 18.982 11.553 19.0903 11.4921L21.9617 9.83296C22.07 9.77201 22.1378 9.65688 22.1378 9.53499V1.27991C22.1378 1.15124 22.07 1.03612 21.9617 0.975169L20.2484 0.020316ZM19.9843 8.4447C19.9843 8.47856 19.9707 8.50564 19.9436 8.51919L18.9617 9.08804C18.9346 9.10158 18.9007 9.10158 18.8736 9.08804L17.8917 8.51919C17.8646 8.50564 17.8511 8.47178 17.8511 8.4447V7.307C17.8511 7.27314 17.8646 7.24605 17.8917 7.23251L18.8736 6.66366C18.9007 6.65011 18.9346 6.65011 18.9617 6.66366L19.9436 7.23251C19.9707 7.24605 19.9843 7.27991 19.9843 7.307V8.4447Z" fill="#F1FAEE"/>
<path d="M29.8036 7.27991C29.912 7.21896 29.9729 7.10384 29.9729 6.98194V6.17607C29.9729 6.05417 29.9052 5.93905 29.8036 5.8781L26.9526 4.22573C26.8442 4.16478 26.7156 4.16478 26.6072 4.22573L23.7359 5.88487C23.6275 5.94582 23.5598 6.06094 23.5598 6.18284V9.49436C23.5598 9.61625 23.6275 9.73138 23.7359 9.79233L26.5869 11.4176C26.6953 11.4786 26.8239 11.4786 26.9255 11.4176L28.6524 10.456C28.7065 10.4289 28.7404 10.3679 28.7404 10.307C28.7404 10.2461 28.7065 10.1851 28.6524 10.158L25.7675 8.49887C25.7133 8.46501 25.6795 8.41083 25.6795 8.34989V7.31377C25.6795 7.25282 25.7133 7.19187 25.7675 7.16478L26.6682 6.65011C26.7223 6.61625 26.7901 6.61625 26.8442 6.65011L27.7449 7.16478C27.7991 7.19864 27.833 7.25282 27.833 7.31377V8.12641C27.833 8.18736 27.8668 8.24831 27.921 8.27539C27.9752 8.30925 28.0429 8.30925 28.0971 8.27539L29.8036 7.27991Z" fill="#F1FAEE"/>
<path d="M26.736 7.12416C26.7563 7.11062 26.7834 7.11062 26.8037 7.12416L27.3522 7.44244C27.3725 7.45599 27.3861 7.4763 27.3861 7.50339V8.13996C27.3861 8.16704 27.3725 8.18736 27.3522 8.2009L26.8037 8.51919C26.7834 8.53273 26.7563 8.53273 26.736 8.51919L26.1874 8.2009C26.1671 8.18736 26.1536 8.16704 26.1536 8.13996V7.50339C26.1536 7.4763 26.1671 7.45599 26.1874 7.44244L26.736 7.12416Z" fill="#539E43"/>
<mask id="mask0" mask-type="alpha" maskUnits="userSpaceOnUse" x="7" y="4" width="8" height="8">
<path d="M11.2483 4.23929C11.14 4.17834 11.0113 4.17834 10.9029 4.23929L8.05193 5.88489C7.94358 5.94584 7.88263 6.06096 7.88263 6.18286V9.48083C7.88263 9.60272 7.95035 9.71785 8.05193 9.7788L10.9029 11.4244C11.0113 11.4853 11.14 11.4853 11.2483 11.4244L14.0993 9.7788C14.2077 9.71785 14.2686 9.60272 14.2686 9.48083V6.18286C14.2686 6.06096 14.2009 5.94584 14.0993 5.88489L11.2483 4.23929Z" fill="white"/>
</mask>
<g mask="url(#mask0)">
<path d="M11.2483 4.23929C11.14 4.17834 11.0113 4.17834 10.9029 4.23929L8.05193 5.88489C7.94358 5.94584 7.88263 6.06096 7.88263 6.18286V9.48083C7.88263 9.60272 7.95035 9.71785 8.05193 9.7788L10.9029 11.4244C11.0113 11.4853 11.14 11.4853 11.2483 11.4244L14.0993 9.7788C14.2077 9.71785 14.2686 9.60272 14.2686 9.48083V6.18286C14.2686 6.06096 14.2009 5.94584 14.0993 5.88489L11.2483 4.23929Z" fill="url(#paint0_linear)"/>
<path d="M14.1061 5.8849L11.2416 4.2393C11.2145 4.22576 11.1806 4.21222 11.1535 4.20544L7.9436 9.70432C7.97069 9.73818 8.00455 9.76526 8.03841 9.78558L10.903 11.4312C10.9842 11.4786 11.079 11.4921 11.1671 11.465L14.1806 5.95262C14.1603 5.92553 14.1332 5.90522 14.1061 5.8849Z" fill="url(#paint1_linear)"/>
<path fill-rule="evenodd" clip-rule="evenodd" d="M14.1129 9.77881C14.1942 9.7314 14.2551 9.65014 14.2822 9.5621L11.14 4.19867C11.0587 4.18512 10.9707 4.19189 10.8962 4.2393L8.05194 5.87812L11.1197 11.4718C11.1603 11.465 11.2077 11.4515 11.2483 11.4312L14.1129 9.77881Z" fill="url(#paint2_linear)"/>
<path fill-rule="evenodd" clip-rule="evenodd" d="M14.1129 9.77881L11.2551 11.4244C11.2144 11.4447 11.1738 11.4583 11.1264 11.465L11.1806 11.5666L14.3499 9.73141V9.69078L14.2686 9.55534C14.2551 9.65014 14.1941 9.73141 14.1129 9.77881Z" fill="url(#paint3_linear)"/>
<path fill-rule="evenodd" clip-rule="evenodd" d="M14.1129 9.77881L11.2551 11.4244C11.2144 11.4447 11.1738 11.4583 11.1264 11.465L11.1806 11.5666L14.3499 9.73141V9.69078L14.2686 9.55534C14.2551 9.65014 14.1941 9.73141 14.1129 9.77881Z" fill="url(#paint4_linear)"/>
</g>
</g>
<defs>
<linearGradient id="paint0_linear" x1="12.2371" y1="5.46601" x2="9.11204" y2="10.3763" gradientUnits="userSpaceOnUse">
<stop stop-color="#41873F"/>
<stop offset="0.3288" stop-color="#418B3D"/>
<stop offset="0.6352" stop-color="#419637"/>
<stop offset="0.9319" stop-color="#3FA92D"/>
<stop offset="1" stop-color="#3FAE2A"/>
</linearGradient>
<linearGradient id="paint1_linear" x1="10.6428" y1="8.21809" x2="18.4691" y2="3.96607" gradientUnits="userSpaceOnUse">
<stop offset="0.1376" stop-color="#41873F"/>
<stop offset="0.4032" stop-color="#54A044"/>
<stop offset="0.7136" stop-color="#66B848"/>
<stop offset="0.9081" stop-color="#6CC04A"/>
</linearGradient>
<linearGradient id="paint2_linear" x1="7.77851" y1="7.83195" x2="14.3756" y2="7.83195" gradientUnits="userSpaceOnUse">
<stop offset="0.0919165" stop-color="#6CC04A"/>
<stop offset="0.2864" stop-color="#66B848"/>
<stop offset="0.5968" stop-color="#54A044"/>
<stop offset="0.8624" stop-color="#41873F"/>
</linearGradient>
<linearGradient id="paint3_linear" x1="7.77848" y1="10.5665" x2="14.3756" y2="10.5665" gradientUnits="userSpaceOnUse">
<stop offset="0.0919165" stop-color="#6CC04A"/>
<stop offset="0.2864" stop-color="#66B848"/>
<stop offset="0.5968" stop-color="#54A044"/>
<stop offset="0.8624" stop-color="#41873F"/>
</linearGradient>
<linearGradient id="paint4_linear" x1="15.3367" y1="5.31014" x2="13.6654" y2="14.0677" gradientUnits="userSpaceOnUse">
<stop stop-color="#41873F"/>
<stop offset="0.3288" stop-color="#418B3D"/>
<stop offset="0.6352" stop-color="#419637"/>
<stop offset="0.9319" stop-color="#3FA92D"/>
<stop offset="1" stop-color="#3FAE2A"/>
</linearGradient>
<clipPath id="clip0">
<rect width="30" height="18.3984" fill="white"/>
</clipPath>
</defs>
</svg>
