<svg width="24" height="25" viewBox="0 0 24 25" fill="none" xmlns="http://www.w3.org/2000/svg">
<g clip-path="url(#clip0)">
<path d="M23.0769 12.5022C23.0769 11.0488 21.1625 9.6714 18.2273 8.81724C18.9046 5.973 18.6036 3.71013 17.2771 2.98565C16.9714 2.81571 16.6139 2.73522 16.2235 2.73522V3.73249C16.4398 3.73249 16.6139 3.77274 16.7597 3.84876C17.3994 4.19758 17.6769 5.52579 17.4606 7.23412C17.4088 7.6545 17.3242 8.09723 17.2207 8.54891C16.2987 8.33425 15.2921 8.16879 14.2337 8.06146C13.5987 7.23412 12.9402 6.48281 12.277 5.82542C13.8104 4.47038 15.2498 3.72802 16.2282 3.72802V2.73074C14.9346 2.73074 13.2412 3.60727 11.5291 5.12778C9.81687 3.61621 8.12349 2.74863 6.82994 2.74863V3.7459C7.80363 3.7459 9.2477 4.4838 10.7811 5.82989C10.1226 6.48729 9.46408 7.23412 8.83847 8.06146C7.77541 8.16879 6.76879 8.33425 5.84684 8.55338C5.73866 8.10618 5.65869 7.67239 5.60225 7.25648C5.38117 5.54815 5.65399 4.21994 6.289 3.86665C6.43012 3.78615 6.61357 3.75038 6.82994 3.75038V2.7531C6.43482 2.7531 6.07733 2.8336 5.76688 3.00354C4.44511 3.72802 4.14877 5.98641 4.83082 8.82171C1.90505 9.68035 0 11.0533 0 12.5022C0 13.9556 1.91445 15.333 4.84963 16.1872C4.17229 19.0315 4.47333 21.2943 5.79981 22.0188C6.10555 22.1887 6.46304 22.2692 6.85816 22.2692C8.15171 22.2692 9.84509 21.3927 11.5573 19.8722C13.2695 21.3838 14.9628 22.2513 16.2564 22.2513C16.6515 22.2513 17.009 22.1709 17.3195 22.0009C18.6412 21.2764 18.9376 19.018 18.2555 16.1827C21.1719 15.3286 23.0769 13.9512 23.0769 12.5022V12.5022ZM16.9526 9.51935C16.7785 10.0962 16.5621 10.691 16.3175 11.2858C16.1247 10.9281 15.9224 10.5703 15.7013 10.2125C15.485 9.85476 15.2545 9.50594 15.024 9.16606C15.6919 9.25997 16.3364 9.37625 16.9526 9.51935ZM14.7982 14.2821C14.4313 14.8858 14.055 15.4583 13.6646 15.9904C12.9637 16.0486 12.2534 16.0799 11.5385 16.0799C10.8282 16.0799 10.1179 16.0486 9.42175 15.9949C9.03133 15.4627 8.65032 14.8948 8.28342 14.2955C7.92593 13.7097 7.60137 13.1149 7.30503 12.5156C7.59666 11.9164 7.92593 11.3171 8.27872 10.7313C8.64562 10.1276 9.02192 9.55513 9.41234 9.02295C10.1132 8.96481 10.8235 8.93351 11.5385 8.93351C12.2487 8.93351 12.959 8.96482 13.6552 9.01848C14.0456 9.55066 14.4266 10.1186 14.7935 10.7179C15.151 11.3037 15.4756 11.8985 15.7719 12.4978C15.4756 13.097 15.151 13.6963 14.7982 14.2821ZM16.3175 13.7007C16.5715 14.3 16.7879 14.8993 16.9667 15.4806C16.3505 15.6237 15.7013 15.7445 15.0287 15.8384C15.2592 15.494 15.4897 15.1407 15.706 14.7785C15.9224 14.4207 16.1247 14.0585 16.3175 13.7007ZM11.5479 18.4724C11.1104 18.0431 10.673 17.5646 10.2402 17.0414C10.6636 17.0593 11.0963 17.0727 11.5338 17.0727C11.9759 17.0727 12.4134 17.0637 12.8414 17.0414C12.4181 17.5646 11.9806 18.0431 11.5479 18.4724ZM8.04823 15.8384C7.38029 15.7445 6.73587 15.6282 6.11967 15.4851C6.29371 14.9082 6.51008 14.3134 6.75468 13.7186C6.94754 14.0764 7.1498 14.4342 7.37088 14.7919C7.59196 15.1497 7.81774 15.4985 8.04823 15.8384ZM11.5244 6.53201C11.9618 6.96133 12.3993 7.43984 12.832 7.96307C12.4087 7.94518 11.9759 7.93177 11.5385 7.93177C11.0963 7.93177 10.6588 7.94071 10.2308 7.96307C10.6541 7.43984 11.0916 6.96133 11.5244 6.53201ZM8.04353 9.16606C7.81304 9.51041 7.58255 9.8637 7.36618 10.2259C7.1498 10.5837 6.94754 10.9415 6.75468 11.2992C6.50067 10.7 6.2843 10.1007 6.10555 9.51935C6.72175 9.38072 7.37088 9.25997 8.04353 9.16606V9.16606ZM3.78657 14.7651C2.12142 14.0898 1.04425 13.2043 1.04425 12.5022C1.04425 11.8001 2.12142 10.9102 3.78657 10.2394C4.1911 10.0739 4.63326 9.92631 5.08953 9.78768C5.35765 10.6642 5.71043 11.5765 6.14789 12.5112C5.71514 13.4414 5.36706 14.3492 5.10364 15.2212C4.63796 15.0826 4.19581 14.9306 3.78657 14.7651ZM6.31723 21.1557C5.67751 20.8069 5.39998 19.4787 5.61636 17.7703C5.6681 17.35 5.75277 16.9072 5.85625 16.4555C6.7782 16.6702 7.78482 16.8357 8.84318 16.943C9.47819 17.7703 10.1367 18.5216 10.8 19.179C9.26652 20.5341 7.82715 21.2764 6.84876 21.2764C6.63709 21.272 6.45834 21.2317 6.31723 21.1557V21.1557ZM17.4747 17.748C17.6958 19.4563 17.4229 20.7845 16.7879 21.1378C16.6468 21.2183 16.4634 21.2541 16.247 21.2541C15.2733 21.2541 13.8292 20.5162 12.2958 19.1701C12.9543 18.5127 13.6128 17.7659 14.2385 16.9385C15.3015 16.8312 16.3081 16.6657 17.2301 16.4466C17.3383 16.8983 17.4229 17.3321 17.4747 17.748V17.748ZM19.2856 14.7651C18.8811 14.9306 18.439 15.0781 17.9827 15.2168C17.7146 14.3402 17.3618 13.4279 16.9243 12.4933C17.3571 11.5631 17.7052 10.6553 17.9686 9.7832C18.4343 9.92184 18.8764 10.0739 19.2904 10.2394C20.9555 10.9146 22.0327 11.8001 22.0327 12.5022C22.028 13.2043 20.9508 14.0943 19.2856 14.7651V14.7651Z" fill="#61DAFB"/>
<path d="M11.5338 14.546C12.721 14.546 13.6834 13.631 13.6834 12.5022C13.6834 11.3735 12.721 10.4585 11.5338 10.4585C10.3466 10.4585 9.38416 11.3735 9.38416 12.5022C9.38416 13.631 10.3466 14.546 11.5338 14.546Z" fill="#61DAFB"/>
</g>
<defs>
<clipPath id="clip0">
<rect width="23.0769" height="25" fill="white"/>
</clipPath>
</defs>
</svg>
