<svg width="25" height="14" viewBox="0 0 25 14" fill="none" xmlns="http://www.w3.org/2000/svg">
<g clip-path="url(#clip0)">
<path d="M18.5849 8.80893C18.1137 8.96103 17.607 9.00778 17.1148 9.09305C16.9808 9.11623 16.8395 9.09556 16.7042 9.1141C15.6543 9.25819 15.2575 9.67414 15.1092 10.7799C15.0303 11.3685 14.8737 11.928 14.5322 12.4288C13.9551 13.2747 12.834 13.6586 11.8746 13.3281C10.8476 12.9744 10.2254 12.0485 10.3084 10.9973C10.3832 10.0502 11.1396 9.21348 12.2017 8.97031C12.6991 8.85644 13.2151 8.81192 13.7254 8.76595C14.6779 8.68029 15.0987 8.26724 15.2574 7.3409C15.3486 6.80791 15.2673 6.30505 15.1478 5.80228C14.9652 5.03384 14.3996 4.6768 13.4498 4.60843C12.9315 4.57105 12.4042 4.49669 11.9083 4.34932C10.8643 4.03883 10.2565 3.14243 10.3046 2.09083C10.3468 1.16999 11.105 0.273398 12.0157 0.0675019C13.0947 -0.176541 14.1687 0.250221 14.6277 1.20061C14.8684 1.69932 15.0006 2.26428 15.095 2.81388C15.2638 3.79933 15.6596 4.18167 16.6534 4.28848C17.2961 4.35762 17.951 4.43643 18.5639 4.6261C19.4947 4.91418 20.0538 5.77205 20.0536 6.72543C20.0535 7.65805 19.4764 8.52123 18.5849 8.80893V8.80893Z" fill="#AA4322"/>
<path d="M7.62489 8.96038C6.37721 8.96057 5.3586 7.9534 5.3584 6.71956C5.35821 5.48563 6.37653 4.47807 7.62401 4.47787C8.8716 4.47768 9.89021 5.48486 9.8904 6.71869C9.8906 7.95263 8.87228 8.96019 7.62489 8.96038ZM2.2602 13.4432C1.01359 13.4401 -0.00140839 12.4294 0.00171618 11.1944C0.00484075 9.96147 1.02658 8.95758 2.27523 8.96077C3.52184 8.96376 4.53684 9.97441 4.53371 11.2094C4.53059 12.4424 3.50885 13.4463 2.2602 13.4432V13.4432ZM22.7488 13.4432C21.499 13.4502 20.4728 12.4504 20.4657 11.2188C20.4586 9.98272 21.4695 8.96772 22.7147 8.96077C23.9645 8.95362 24.9906 9.95336 24.9978 11.1851C25.0049 12.4211 23.994 13.4361 22.7488 13.4432Z" fill="#F1FAEE"/>
</g>
<defs>
<clipPath id="clip0">
<rect width="25" height="13.5204" fill="white"/>
</clipPath>
</defs>
</svg>
