<svg width="25" height="20" viewBox="0 0 25 20" fill="none" xmlns="http://www.w3.org/2000/svg">
<g clip-path="url(#clip0)">
<path d="M21.5138 11.3694C20.6398 11.3746 19.883 11.5962 19.2482 11.9261C19.0138 11.4365 18.7794 11.0086 18.7404 10.6891C18.6965 10.318 18.6428 10.0912 18.6965 9.64802C18.7502 9.20472 18.9943 8.57592 18.9943 8.52438C18.9894 8.47799 18.9405 8.25121 18.4377 8.24606C17.9348 8.2409 17.5002 8.34914 17.4513 8.4883C17.4025 8.62746 17.3048 8.94701 17.2414 9.27687C17.1535 9.76136 16.2355 11.4777 15.713 12.3796C15.5421 12.0292 15.3957 11.7199 15.3663 11.4725C15.3224 11.1014 15.2687 10.8746 15.3224 10.4314C15.3761 9.98808 15.6203 9.35934 15.6203 9.3078C15.6154 9.26141 15.5666 9.03463 15.0637 9.02948C14.5607 9.02432 14.1262 9.13256 14.0774 9.27172C14.0285 9.41088 13.9748 9.74074 13.8674 10.0603C13.7648 10.3798 12.5441 13.2455 12.2267 13.9929C12.0656 14.3743 11.924 14.6783 11.8214 14.8845C11.7189 15.0907 11.8166 14.9 11.8068 14.9206C11.7189 15.0958 11.6701 15.1938 11.6701 15.1938V15.199C11.6017 15.3278 11.5285 15.4515 11.4942 15.4515C11.4698 15.4515 11.421 15.1061 11.504 14.632C11.6847 13.6372 12.1241 12.0859 12.1193 12.0292C12.1193 12.0034 12.2023 11.7302 11.836 11.5911C11.4796 11.4519 11.3527 11.6839 11.3233 11.6839C11.2941 11.6839 11.2696 11.7663 11.2696 11.7663C11.2696 11.7663 11.6651 10.0192 10.5128 10.0192C9.79014 10.0192 8.79405 10.849 8.30089 11.6066C7.98839 11.787 7.32432 12.1684 6.6212 12.5756C6.35264 12.7302 6.07432 12.8951 5.81065 13.0446L5.75699 12.9827C4.36051 11.4107 1.7775 10.2974 1.88492 8.18421C1.92398 7.41625 2.17789 5.3907 6.84591 2.93736C10.6691 0.927265 13.7307 1.47875 14.2628 2.70542C15.0197 4.45781 12.6271 7.71519 8.65255 8.18421C7.13887 8.3646 6.34293 7.74611 6.14278 7.51418C5.93282 7.27194 5.90352 7.26163 5.8254 7.30802C5.69845 7.38017 5.77657 7.59664 5.8254 7.7255C5.94259 8.0502 6.43087 8.62746 7.26095 8.91609C7.98844 9.16864 9.76583 9.3078 11.9143 8.4316C14.3215 7.44718 16.2014 4.71551 15.6496 2.43226C15.0881 0.107767 11.4357 -0.655037 7.9836 0.638637C5.92789 1.41175 3.70133 2.6178 2.09976 4.20011C0.195467 6.07619 -0.107267 7.71519 0.0196858 8.39553C0.46407 10.8231 3.63297 12.4054 4.9025 13.5754C4.83902 13.6114 4.78043 13.6475 4.72672 13.6785C4.09195 14.0083 1.67496 15.3432 1.06949 16.7554C0.385897 18.3532 1.17691 19.5026 1.70426 19.6572C3.33512 20.1365 5.00504 19.2758 5.90836 17.8584C6.80675 16.441 6.69937 14.601 6.28433 13.7609L6.26964 13.73L6.76768 13.4208C7.09 13.2197 7.40738 13.0342 7.68565 12.8744C7.52945 13.3228 7.4171 13.8536 7.35855 14.6268C7.29019 15.5339 7.64176 16.709 8.10562 17.1729C8.3107 17.3738 8.55484 17.379 8.70621 17.379C9.24332 17.379 9.48746 16.91 9.75601 16.3482C10.088 15.6627 10.381 14.869 10.381 14.869C10.381 14.869 10.0148 17.0182 11.0158 17.0182C11.382 17.0182 11.7482 16.5183 11.9142 16.2606V16.2658C11.9142 16.2658 11.924 16.2503 11.9435 16.2142C11.964 16.1822 11.9835 16.1496 12.0021 16.1163V16.106C12.1486 15.838 12.4757 15.2247 12.964 14.2093C13.5939 12.9002 14.1994 11.2612 14.1994 11.2612C14.1994 11.2612 14.258 11.6632 14.4386 12.3229C14.546 12.7147 14.7804 13.1424 14.961 13.5599C14.8146 13.7764 14.7267 13.9001 14.7267 13.9001L14.7315 13.9053C14.6144 14.0702 14.4825 14.2455 14.3459 14.4207C13.8478 15.0495 13.2521 15.766 13.174 15.9721C13.0812 16.2143 13.1007 16.3947 13.2814 16.5391C13.4132 16.6422 13.6476 16.6627 13.8966 16.6422C14.3459 16.6112 14.6584 16.4927 14.8146 16.4205C15.0587 16.3277 15.3371 16.1885 15.6056 15.9824C16.0939 15.601 16.3918 15.0599 16.3625 14.3383C16.3478 13.9414 16.2257 13.5497 16.0744 13.1786C16.1183 13.1116 16.1623 13.0446 16.2062 12.9725C16.9777 11.7818 17.5734 10.4727 17.5734 10.4727C17.5734 10.4727 17.632 10.8747 17.8127 11.5345C17.9054 11.8695 18.091 12.2355 18.257 12.5963C17.5343 13.2199 17.0802 13.9415 16.924 14.4156C16.6359 15.2918 16.8605 15.6887 17.2853 15.7815C17.4757 15.8227 17.7492 15.7299 17.9542 15.6372C18.2081 15.5495 18.5157 15.4 18.799 15.1784C19.2873 14.797 19.756 14.2662 19.7316 13.5498C19.717 13.2199 19.6339 12.8952 19.5216 12.5859C20.1369 12.3179 20.9327 12.1633 21.9435 12.2922C24.1164 12.5602 24.5461 13.993 24.4631 14.5909C24.3801 15.1888 23.926 15.5186 23.7746 15.6217C23.6232 15.7196 23.5744 15.7558 23.589 15.8279C23.6086 15.9362 23.6769 15.9309 23.8087 15.9104C23.9894 15.8794 24.9513 15.4207 24.9904 14.3178C25.049 12.9002 23.7746 11.354 21.5138 11.3694V11.3694ZM4.75601 17.3327C4.03824 18.1625 3.0275 18.4769 2.59781 18.2089C2.13394 17.9254 2.31456 16.7039 3.1984 15.8226C3.73551 15.2865 4.43375 14.7917 4.89273 14.4876C4.99527 14.4206 5.15152 14.3228 5.33707 14.2042C5.36637 14.1836 5.3859 14.1732 5.3859 14.1732C5.42008 14.1526 5.45914 14.1269 5.4982 14.1011C5.82535 15.3587 5.51285 16.4617 4.75601 17.3327V17.3327ZM10.005 13.5651C9.75601 14.2093 9.22867 15.8638 8.91129 15.771C8.6378 15.6937 8.47183 14.4413 8.85753 13.2043C9.05284 12.5806 9.46788 11.8385 9.71202 11.5498C10.1076 11.0859 10.5372 10.9313 10.6447 11.122C10.7716 11.3694 10.1613 13.1631 10.005 13.5651ZM14.3361 15.7504C14.2287 15.8071 14.131 15.8483 14.0871 15.8175C14.0529 15.7968 14.131 15.7195 14.131 15.7195C14.131 15.7195 14.673 15.1062 14.8878 14.8227C15.0099 14.6578 15.1564 14.4671 15.3126 14.2506V14.3125C15.3127 15.0546 14.6388 15.5494 14.3361 15.7504ZM17.6759 14.9464C17.5978 14.8845 17.6076 14.6938 17.8712 14.0959C17.9738 13.8589 18.2081 13.462 18.6134 13.0857C18.6622 13.2404 18.6916 13.3898 18.6866 13.529C18.6818 14.4567 18.0568 14.802 17.6759 14.9464Z" fill="#CF649A"/>
</g>
<defs>
<clipPath id="clip0">
<rect width="25" height="19.7917" fill="white"/>
</clipPath>
</defs>
</svg>
