<svg width="30" height="15" viewBox="0 0 30 15" fill="none" xmlns="http://www.w3.org/2000/svg">
<path d="M11.5907 7.00951C11.2118 7.00951 10.9038 7.12166 10.6676 7.34586C10.4314 7.57027 10.3116 7.86441 10.3116 8.22481C10.3116 8.41159 10.3413 8.58189 10.4 8.73794C10.4586 8.89431 10.5498 9.03916 10.6725 9.17005C10.7952 9.30106 11.0407 9.47902 11.4066 9.70528C11.8556 9.97939 12.1494 10.2018 12.2904 10.3755C12.4316 10.5491 12.5016 10.731 12.5016 10.9206C12.5016 11.1745 12.418 11.3771 12.2462 11.5295C12.0742 11.6819 11.8441 11.7578 11.5588 11.7578C11.2579 11.7578 10.9958 11.6517 10.7707 11.4411C10.5456 11.2301 10.432 10.9511 10.4294 10.6014H10.2895V11.8707H10.4294C10.4722 11.7505 10.5313 11.6891 10.6087 11.6891C10.6459 11.6891 10.7331 11.7147 10.8689 11.7627C11.1994 11.8803 11.4707 11.937 11.684 11.937C12.0516 11.937 12.3654 11.8083 12.6268 11.5467C12.8878 11.2851 13.0196 10.9697 13.0196 10.6014C13.0196 10.3159 12.9326 10.0618 12.7618 9.84032C12.591 9.61858 12.2589 9.36067 11.7626 9.06448C11.3355 8.80788 11.0582 8.59888 10.9303 8.43596C10.8021 8.27327 10.7363 8.09331 10.7363 7.89582C10.7363 7.68222 10.8148 7.51066 10.9696 7.38269C11.1243 7.25463 11.3271 7.19119 11.5809 7.19119C11.8665 7.19119 12.1045 7.27594 12.2929 7.44653C12.481 7.61741 12.5899 7.8542 12.6219 8.15852H12.7618V7.05861H12.6317C12.6158 7.11469 12.6011 7.15053 12.5875 7.16664C12.5743 7.18264 12.549 7.19119 12.5114 7.19119C12.4661 7.19119 12.3854 7.17214 12.2708 7.13472C12.0253 7.05203 11.7989 7.00951 11.5907 7.00951ZM16.1646 7.00951C15.703 7.00951 15.2838 7.11832 14.9052 7.33604C14.5259 7.55338 14.2257 7.85516 14.0041 8.23955C13.7827 8.6239 13.6727 9.0321 13.6727 9.46713C13.6727 10.0516 13.864 10.5723 14.2496 11.0286C14.6355 11.4847 15.0978 11.7689 15.6343 11.8781C15.757 11.942 15.9325 12.107 16.1622 12.374C16.4211 12.6754 16.6401 12.8928 16.8202 13.0222C17.0001 13.1517 17.1943 13.2466 17.3996 13.3095C17.605 13.372 17.8272 13.4028 18.0674 13.4028C18.3583 13.4028 18.6187 13.3522 18.8481 13.2481L18.7966 13.1204C18.6634 13.1685 18.5214 13.1916 18.3718 13.1916C18.1688 13.1916 17.9637 13.1247 17.758 12.9903C17.5527 12.8556 17.2959 12.5985 16.9896 12.2194C16.8456 12.0377 16.7462 11.9231 16.69 11.8781C17.277 11.7635 17.7597 11.479 18.1361 11.0237C18.5125 10.5686 18.7008 10.0492 18.7008 9.46713C18.7008 8.77596 18.4549 8.19509 17.9667 7.7215C17.4781 7.24787 16.8773 7.00951 16.1646 7.00951ZM19.02 7.00951L19.0273 7.15927C19.3347 7.15927 19.5069 7.24982 19.5454 7.4318C19.5597 7.49691 19.5663 7.61713 19.5675 7.79025L19.565 11.1023C19.5625 11.3496 19.5272 11.5076 19.4594 11.5761C19.3916 11.6442 19.2769 11.6868 19.1108 11.7038L19.1035 11.8536H22.1675L22.246 11.1023H22.1061C22.0661 11.3069 21.9745 11.4535 21.8287 11.5368C21.6824 11.6207 21.4239 11.662 21.0504 11.662H20.7607C20.4246 11.662 20.2302 11.5406 20.1788 11.2962C20.1682 11.2479 20.1646 11.1961 20.1641 11.1391L20.1764 7.79025C20.1763 7.54328 20.2075 7.37778 20.2721 7.29676C20.3374 7.21603 20.4552 7.17086 20.6256 7.15927L20.6183 7.00951H19.02ZM16.2137 7.19119C16.7344 7.19119 17.1596 7.39626 17.488 7.80989C17.8163 8.22367 17.979 8.79077 17.979 9.50887C17.979 10.1893 17.8139 10.7342 17.4831 11.144C17.1522 11.5537 16.7118 11.7578 16.1646 11.7578C15.639 11.7578 15.2126 11.5473 14.8855 11.1244C14.5587 10.7014 14.3969 10.1522 14.3969 9.47695C14.3969 8.78302 14.5607 8.22753 14.8904 7.81235C15.22 7.3976 15.6613 7.19119 16.2137 7.19119ZM23.26 7.90319C23.1853 7.90319 23.1283 7.92843 23.0857 7.9793C23.0421 8.02997 23.0287 8.09135 23.044 8.16589C23.0587 8.2382 23.0994 8.30157 23.1643 8.35494C23.2287 8.40825 23.2982 8.43596 23.3729 8.43596C23.4452 8.43596 23.5003 8.40826 23.5399 8.35494C23.5795 8.30157 23.5916 8.2382 23.5767 8.16589C23.5615 8.09135 23.5221 8.02997 23.4613 7.9793C23.3999 7.92843 23.3323 7.90319 23.26 7.90319ZM25.2806 8.41141C25.1536 8.89991 24.8783 9.16426 24.4557 9.20688L24.4606 9.34683H24.9541L24.9442 11.0016C24.945 11.2845 24.9537 11.4729 24.9737 11.5688C25.0223 11.7983 25.1722 11.9149 25.423 11.9149C25.7859 11.9149 26.1665 11.6939 26.5646 11.252L26.4443 11.1489C26.1569 11.4399 25.9027 11.5859 25.6808 11.5859C25.5444 11.5859 25.4598 11.5075 25.4279 11.3527C25.4192 11.3151 25.4156 11.2712 25.4156 11.2201L25.4205 9.34683H26.1743L26.1669 9.12341H25.423V8.41141H25.2806ZM28.1948 9.03502C27.7732 9.03502 27.4303 9.23968 27.1637 9.64636C26.8984 10.0537 26.8163 10.505 26.9206 11.0016C26.982 11.2925 27.1043 11.5179 27.2914 11.6768C27.4781 11.8356 27.7151 11.9149 27.9984 11.9149C28.2622 11.9149 28.6295 11.8481 28.7841 11.7136C28.939 11.5792 29.0818 11.3613 29.2137 11.063L29.1082 10.9525C28.8978 11.3395 28.4733 11.5344 28.1531 11.5344C27.713 11.5344 27.4434 11.2929 27.3429 10.8126C27.3299 10.7513 27.3201 10.6854 27.3134 10.6161C27.8371 10.5332 28.2339 10.3864 28.5017 10.1742C28.7694 9.96189 29.038 9.73681 28.9879 9.49905C28.958 9.35776 28.8846 9.24666 28.7718 9.16269C28.6575 9.07875 28.3607 9.03502 28.1948 9.03502ZM23.5865 9.05221L22.6781 9.2609V9.42294L22.9924 9.38365C23.1446 9.38365 23.2342 9.45259 23.2625 9.58989C23.272 9.63584 23.278 9.70037 23.2797 9.78139L23.2698 11.2668C23.2673 11.4723 23.2445 11.5918 23.1986 11.6277C23.1524 11.6636 23.0304 11.6817 22.8328 11.6817L22.8279 11.8216H24.2691L24.2666 11.6817C24.0664 11.6817 23.9366 11.6659 23.8787 11.635C23.8218 11.6044 23.7827 11.5486 23.7658 11.4632C23.7527 11.4016 23.747 11.2955 23.7461 11.1489L23.751 9.05221H23.5865ZM27.9641 9.32718C28.0518 9.32718 28.1365 9.36106 28.2219 9.42785C28.306 9.4944 28.3573 9.56841 28.3741 9.64881C28.4563 10.0437 28.1062 10.3167 27.3184 10.4688C27.2959 10.1809 27.3458 9.91949 27.473 9.68318C27.5993 9.4471 27.7638 9.32718 27.9641 9.32718Z" fill="#F1FAEE"/>
<path d="M9.55593 1.33846H1.73828C1.21433 1.33846 0.785645 1.76723 0.785645 2.29117V10.9127C0.785645 11.4366 1.21433 11.8653 1.73828 11.8653H6.88719C6.82874 9.30331 7.70361 4.33135 9.55593 1.33846Z" fill="#0F80CC"/>
<path d="M9.27189 1.61638H1.73826C1.36623 1.61638 1.06348 1.91905 1.06348 2.29116V10.2836C2.76968 9.62878 5.33049 9.06375 7.10113 9.08941C7.45695 7.22891 8.50268 3.58273 9.27189 1.61638V1.61638Z" fill="url(#paint0_linear)"/>
<path d="M11.3794 1.05631C10.844 0.578827 10.1957 0.770625 9.55589 1.33846C9.46093 1.42282 9.36616 1.51641 9.27188 1.61638C8.17738 2.77748 7.16144 4.92821 6.84581 6.57072C6.96876 6.82006 7.06481 7.13825 7.12805 7.38132C7.14425 7.44368 7.15889 7.50221 7.17057 7.552C7.19836 7.66984 7.21329 7.74625 7.21329 7.74625C7.21329 7.74625 7.20347 7.70912 7.16321 7.59236C7.15555 7.56997 7.147 7.54552 7.13689 7.51674C7.13257 7.50486 7.12658 7.49042 7.12 7.475C7.0486 7.30904 6.85111 6.95873 6.7642 6.80622C6.68986 7.02551 6.62416 7.23067 6.56916 7.41628C6.82008 7.87537 6.97298 8.66215 6.97298 8.66215C6.97298 8.66215 6.95972 8.61116 6.89668 8.4332C6.8407 8.2758 6.56189 7.7873 6.49585 7.6731C6.38287 8.09016 6.33799 8.37174 6.37847 8.4403C6.45706 8.57314 6.53191 8.80236 6.59764 9.05585C6.74613 9.62691 6.84934 10.3221 6.84934 10.3221C6.84934 10.3221 6.85268 10.3682 6.85828 10.4391C6.83766 10.9186 6.85003 11.4158 6.88715 11.8653C6.93635 12.4602 7.02896 12.9712 7.147 13.2448L7.22714 13.2011C7.05381 12.6622 6.98339 11.956 7.01423 11.1416C7.06088 9.89668 7.34734 8.39541 7.87667 6.83067C8.77093 4.4686 10.0117 2.57341 11.1472 1.66833C10.1122 2.60306 8.71142 5.62872 8.29208 6.74916C7.82256 8.00385 7.48984 9.18126 7.2893 10.3093C7.63528 9.25177 8.75394 8.79718 8.75394 8.79718C8.75394 8.79718 9.30262 8.12051 9.9438 7.15377C9.55972 7.24137 8.92904 7.39133 8.7178 7.48011C8.4062 7.61083 8.32223 7.65541 8.32223 7.65541C8.32223 7.65541 9.33159 7.04073 10.1976 6.76242C11.3885 4.88667 12.686 2.22192 11.3794 1.05631" fill="#003B57"/>
<defs>
<linearGradient id="paint0_linear" x1="5.79658" y1="1.79375" x2="5.79658" y2="9.80162" gradientUnits="userSpaceOnUse">
<stop stop-color="#97D9F6"/>
<stop offset="0.920245" stop-color="#0F80CC"/>
<stop offset="1" stop-color="#0F80CC"/>
</linearGradient>
</defs>
</svg>
