<svg width="64" height="64" viewBox="0 0 64 64" fill="none" xmlns="http://www.w3.org/2000/svg">
<path d="M57 10H46V11H57C57.551 11 58 11.449 58 12V44H6V12C6 11.449 6.449 11 7 11H46V10H7C5.9 10 5 10.9 5 12V44V44.288V47C5 48.1 5.9 49 7 49H25.714L24.285 54H21C19.896 54 19 54.896 19 56V57H45V56C45 54.896 44.104 54 43 54H39.714L38.285 49H57C58.1 49 59 48.1 59 47V44.825V44V12C59 10.9 58.1 10 57 10ZM40 55H43C43.551 55 44 55.449 44 56H20C20 55.449 20.449 55 21 55H24H40ZM38.674 54H25.326L26.755 49H37.246L38.674 54ZM58 47C58 47.551 57.551 48 57 48H38H26H7C6.449 48 6 47.551 6 47V45H58V47Z" fill="#E63946"/>
<path d="M7 12V42H57V12H46V12.5V13H56V41H8V13H46V12.5V12H7Z" fill="#E63946"/>
<path d="M20.3334 32.8334H22.6667V33.4167H21.5V34.5834H22.6667V35.1667H20.3334V36.3334H23.8334V31.6667H20.3334V32.8334ZM21.5 22.3334H22.6667V17.6667H20.3334V18.8334H21.5V22.3334ZM20.3334 25.8334H22.4334L20.3334 28.2834V29.3334H23.8334V28.1667H21.7334L23.8334 25.7167V24.6667H20.3334V25.8334ZM26.1667 18.8334V21.1667H42.5V18.8334H26.1667ZM26.1667 35.1667H42.5V32.8334H26.1667V35.1667ZM26.1667 28.1667H42.5V25.8334H26.1667V28.1667Z" fill="#F1FAEE"/>
</svg>
