<svg width="64" height="64" viewBox="0 0 64 64" fill="none" xmlns="http://www.w3.org/2000/svg">
<path d="M57 10H46V11H57C57.551 11 58 11.449 58 12V44H6V12C6 11.449 6.449 11 7 11H46V10H7C5.9 10 5 10.9 5 12V44V44.288V47C5 48.1 5.9 49 7 49H25.714L24.285 54H21C19.896 54 19 54.896 19 56V57H45V56C45 54.896 44.104 54 43 54H39.714L38.285 49H57C58.1 49 59 48.1 59 47V44.825V44V12C59 10.9 58.1 10 57 10ZM40 55H43C43.551 55 44 55.449 44 56H20C20 55.449 20.449 55 21 55H24H40ZM38.674 54H25.326L26.755 49H37.246L38.674 54ZM58 47C58 47.551 57.551 48 57 48H38H26H7C6.449 48 6 47.551 6 47V45H58V47Z" fill="#E63946"/>
<path d="M7 12V42H57V12H46V12.5V13H56V41H8V13H46V12.5V12H7Z" fill="#E63946"/>
<line x1="15" y1="17.5" x2="26" y2="17.5" stroke="#E63946"/>
<line x1="15" y1="23.5" x2="26" y2="23.5" stroke="#E63946"/>
<line x1="19" y1="19.5" x2="33" y2="19.5" stroke="#E63946"/>
<line x1="13" y1="21.5" x2="27" y2="21.5" stroke="#E63946"/>
<line x1="12" y1="17.5" x2="14" y2="17.5" stroke="#E63946"/>
<line x1="12" y1="23.5" x2="14" y2="23.5" stroke="#E63946"/>
<line x1="12" y1="25.5" x2="18" y2="25.5" stroke="#E63946"/>
<path d="M13 27.5H15" stroke="#E63946"/>
<path d="M35 29.5H37" stroke="#E63946"/>
<line x1="16" y1="27.5" x2="20" y2="27.5" stroke="#E63946"/>
<path d="M13 29.5H17" stroke="#E63946"/>
<path d="M21 27.5H39M18 29.5H34" stroke="#E63946"/>
<line x1="12" y1="37.5" x2="18" y2="37.5" stroke="#E63946"/>
<line x1="13" y1="19.5" x2="18" y2="19.5" stroke="#E63946"/>
<line x1="13" y1="31.5" x2="18" y2="31.5" stroke="#E63946"/>
<line x1="24" y1="33.5" x2="27" y2="33.5" stroke="#E63946"/>
<line x1="21" y1="35.5" x2="24" y2="35.5" stroke="#E63946"/>
<line x1="25" y1="35.5" x2="34" y2="35.5" stroke="#E63946"/>
<line x1="28" y1="33.5" x2="32" y2="33.5" stroke="#E63946"/>
<line x1="33" y1="33.5" x2="38" y2="33.5" stroke="#E63946"/>
<line x1="19" y1="31.5" x2="29" y2="31.5" stroke="#E63946"/>
<line x1="30" y1="31.5" x2="40" y2="31.5" stroke="#E63946"/>
<line x1="13" y1="33.5" x2="23" y2="33.5" stroke="#E63946"/>
<line x1="13" y1="35.5" x2="20" y2="35.5" stroke="#E63946"/>
<line x1="32" y1="21.5" x2="37" y2="21.5" stroke="#E63946"/>
<line x1="28" y1="21.5" x2="31" y2="21.5" stroke="#E63946"/>
<line x1="34" y1="19.5" x2="39" y2="19.5" stroke="#E63946"/>
</svg>
