<svg width="64" height="64" viewBox="0 0 64 64" fill="none" xmlns="http://www.w3.org/2000/svg">
<path d="M24 29H27V32H28V23V22H24V23H27V28H24V23H23V32H24V29Z" fill="#E63946"/>
<path d="M31 29H35V23H34V28H31V23H34V22H30V32H31V29Z" fill="#E63946"/>
<path d="M40 31H39V23H40V22H37V23H38V31H37V32H40V31Z" fill="#E63946"/>
<path d="M57 10H46V11H57C57.551 11 58 11.449 58 12V44H6V12C6 11.449 6.449 11 7 11H46V10H7C5.9 10 5 10.9 5 12V44V44.288V47C5 48.1 5.9 49 7 49H25.714L24.285 54H21C19.896 54 19 54.896 19 56V57H45V56C45 54.896 44.104 54 43 54H39.714L38.285 49H57C58.1 49 59 48.1 59 47V44.825V44V12C59 10.9 58.1 10 57 10ZM40 55H43C43.551 55 44 55.449 44 56H20C20 55.449 20.449 55 21 55H24H40ZM38.674 54H25.326L26.755 49H37.246L38.674 54ZM58 47C58 47.551 57.551 48 57 48H38H26H7C6.449 48 6 47.551 6 47V45H58V47Z" fill="#E63946"/>
<path d="M7 12V42H57V12H46V12.5V13H56V41H8V13H46V12.5V12H7Z" fill="#E63946"/>
</svg>
