<svg width="1042" height="1042" viewBox="0 0 1042 1042" fill="none" xmlns="http://www.w3.org/2000/svg">
<circle cx="521" cy="521" r="521" fill="#E63946"/>
<path d="M406.35 603C376.75 583.8 349.75 567.6 325.35 554.4C291.35 619.2 263.55 677.2 241.95 728.4L171.75 664.2C191.75 619.8 217.55 570.2 249.15 515.4L201.75 492.6L242.55 422.4L290.55 445.2C327.35 385.2 360.35 336.6 389.55 299.4L454.35 357.6C437.95 379.2 409.15 421.4 367.95 484.2C393.55 498.6 419.55 514 445.95 530.4C504.35 430 551.95 356.6 588.75 310.2L653.55 368.4C606.35 432 560.95 502.2 517.35 579L568.35 616.8L521.55 685.2L478.95 652.8C461.75 686.8 447.95 717.8 437.55 745.8L367.95 681.6C377.55 660 390.35 633.8 406.35 603ZM785.831 371.4C776.631 361.8 772.031 350.2 772.031 336.6C772.031 323 776.631 311.6 785.831 302.4C795.431 292.8 807.031 288 820.631 288C834.231 288 845.631 292.8 854.831 302.4C864.431 311.6 869.231 323 869.231 336.6C869.231 350.2 864.431 361.8 854.831 371.4C845.631 380.6 834.231 385.2 820.631 385.2C807.031 385.2 795.431 380.6 785.831 371.4ZM695.231 635.4C736.031 623 785.031 601.8 842.231 571.8L854.831 632.4C816.031 657.6 769.231 682.2 714.431 706.2C696.031 714.2 678.031 721.2 660.431 727.2L591.431 663.6C611.031 610 646.231 543.2 697.031 463.2C712.231 439.2 727.031 418.2 741.431 400.2L800.831 444C771.631 484 743.231 532.2 715.631 588.6C707.631 605.4 700.831 621 695.231 635.4Z" fill="#F1FAEE"/>
</svg>
