<svg width="25" height="25" viewBox="0 0 25 25" fill="none"
  xmlns="http://www.w3.org/2000/svg">
  <path class="settings-icon-fill" d="M10.9375 0.78125C10.7735 0.781165 10.6136 0.832637 10.4805 0.928491C10.3474 1.02435 10.2478 1.15965 10.1959 1.31525L9.40246 3.69562C9.08211 3.80841 8.76875 3.93773 8.46252 4.08472L6.21796 2.9632C6.07128 2.8899 5.90527 2.86464 5.74342 2.89093C5.58157 2.91721 5.4321 2.99377 5.31616 3.10972L3.10669 5.31915C2.99073 5.43508 2.91419 5.5846 2.8879 5.74645C2.86161 5.9083 2.88691 6.0743 2.96021 6.22098L4.0802 8.46096C3.93287 8.76872 3.8025 9.0835 3.68958 9.4055L1.31226 10.1989C1.15666 10.2508 1.02135 10.3504 0.925499 10.4835C0.829646 10.6166 0.778111 10.7764 0.778198 10.9404V14.0655C0.778111 14.2295 0.829646 14.3894 0.925499 14.5225C1.02135 14.6556 1.15666 14.7552 1.31226 14.8071L3.6972 15.6021C3.80961 15.9205 3.93869 16.2314 4.08478 16.5359L2.96021 18.7851C2.88691 18.9317 2.86162 19.0977 2.88791 19.2596C2.9142 19.4214 2.99074 19.5709 3.10669 19.6868L5.31616 21.8979C5.4321 22.0138 5.58157 22.0903 5.74342 22.1166C5.90527 22.1428 6.07128 22.1176 6.21796 22.0443L8.46252 20.9212C8.76844 21.0674 9.08099 21.1964 9.40094 21.3088L10.1959 23.6922C10.2478 23.8478 10.3474 23.9831 10.4805 24.079C10.6136 24.1748 10.7735 24.2264 10.9375 24.2263H14.0625C14.2265 24.2264 14.3864 24.1748 14.5195 24.079C14.6526 23.9831 14.7522 23.8478 14.8041 23.6922L15.5991 21.3042C15.9166 21.1923 16.2277 21.0636 16.5314 20.9182L18.782 22.0443C18.9287 22.1176 19.0947 22.1428 19.2566 22.1166C19.4184 22.0903 19.5679 22.0138 19.6838 21.8979L21.8933 19.6868C22.0093 19.5709 22.0858 19.4214 22.1121 19.2596C22.1384 19.0977 22.1131 18.9317 22.0398 18.7851L20.9183 16.542C21.0653 16.2353 21.1945 15.9214 21.3074 15.6005L23.6877 14.8071C23.8433 14.7552 23.9786 14.6556 24.0745 14.5225C24.1704 14.3894 24.2219 14.2295 24.2218 14.0655V10.9405C24.2219 10.7765 24.1704 10.6166 24.0745 10.4835C23.9786 10.3504 23.8433 10.2508 23.6877 10.1989L21.3058 9.4055C21.1931 9.08566 21.0635 8.77281 20.9167 8.46708L22.0398 6.22098C22.1131 6.0743 22.1384 5.9083 22.1121 5.74645C22.0858 5.5846 22.0093 5.43508 21.8933 5.31915L19.6838 3.10972C19.5679 2.99377 19.4184 2.91721 19.2566 2.89093C19.0947 2.86464 18.9287 2.88999 18.782 2.96329L16.5436 4.08174C16.2348 3.93411 15.9191 3.80417 15.596 3.69111L14.8041 1.31534C14.7522 1.15974 14.6526 1.02435 14.5195 0.928491C14.3864 0.832631 14.2265 0.781167 14.0625 0.78125H10.9375ZM11.5005 2.34368H13.4994L14.2242 4.51959C14.264 4.63882 14.3319 4.74678 14.4222 4.83417C14.5125 4.92156 14.6226 4.98582 14.743 5.0216C15.2515 5.17278 15.7435 5.37499 16.2109 5.62589C16.321 5.68524 16.4438 5.71727 16.5688 5.71933C16.6939 5.72139 16.8176 5.69339 16.9296 5.63769L18.9774 4.61385L20.3903 6.02679L19.3619 8.08366C19.3057 8.19576 19.2774 8.31975 19.2793 8.4451C19.2811 8.57045 19.3131 8.69353 19.3726 8.80392C19.6229 9.26824 19.8265 9.75597 19.9783 10.2611C20.0142 10.3811 20.0784 10.4908 20.1655 10.5808C20.2526 10.6708 20.36 10.7386 20.4788 10.7784L22.6593 11.5047V13.5036L20.4804 14.2299C20.3616 14.2697 20.2541 14.3374 20.167 14.4275C20.0799 14.5175 20.0157 14.6272 19.9799 14.7472C19.8282 15.2533 19.6246 15.7423 19.3741 16.2074C19.3147 16.3178 19.2827 16.4409 19.2808 16.5663C19.2789 16.6916 19.3073 16.8156 19.3634 16.9277L20.3903 18.9815L18.9774 20.396L16.9159 19.3645C16.8037 19.3085 16.6797 19.2804 16.5543 19.2825C16.429 19.2845 16.306 19.3167 16.1957 19.3763C15.733 19.6252 15.2477 19.8277 14.7446 19.979C14.6245 20.0149 14.5149 20.0791 14.4249 20.1662C14.3348 20.2533 14.2671 20.3607 14.2273 20.4795L13.4994 22.6661H11.5005L10.7727 20.4826C10.7331 20.3635 10.6655 20.2557 10.5754 20.1684C10.4854 20.081 10.3756 20.0166 10.2554 19.9806C9.7504 19.8297 9.26111 19.6287 8.79669 19.3793C8.68659 19.32 8.56385 19.288 8.43879 19.2859C8.31372 19.2838 8.18999 19.3118 8.078 19.3675L6.02264 20.396L4.60968 18.9815L5.63965 16.9216C5.69578 16.8095 5.72411 16.6855 5.72225 16.5601C5.72039 16.4348 5.68839 16.3118 5.62896 16.2014C5.37939 15.7383 5.1764 15.2508 5.02471 14.7472C4.98865 14.6274 4.92438 14.5181 4.83729 14.4284C4.75019 14.3386 4.64283 14.271 4.52422 14.2314L2.34069 13.5036V11.5047L4.51812 10.7784C4.63718 10.7388 4.74496 10.6711 4.83235 10.5811C4.91973 10.491 4.98414 10.3813 5.02013 10.2611C5.17165 9.75406 5.37373 9.26385 5.62438 8.79779C5.68382 8.6874 5.71581 8.56433 5.71768 8.43897C5.71954 8.31361 5.6912 8.18964 5.63507 8.07753L4.60968 6.02679L6.02264 4.61385L8.078 5.64075C8.19019 5.69671 8.3142 5.72481 8.43955 5.72275C8.56491 5.7207 8.68792 5.68856 8.79822 5.62895C9.26297 5.37856 9.75134 5.1749 10.257 5.02313C10.377 4.98728 10.4866 4.92317 10.5767 4.83606C10.6667 4.74896 10.7344 4.64144 10.7742 4.52266L11.5005 2.34368Z" fill="#E63946"/>
  <path class="settings-icon-fill" d="M12.4974 7.02979C9.48631 7.02979 7.03015 9.49169 7.03015 12.5028C7.03015 15.5138 9.48631 17.97 12.4974 17.97C15.5084 17.97 17.9703 15.5138 17.9703 12.5028C17.9703 9.49169 15.5084 7.02979 12.4974 7.02979ZM12.4974 8.59267C14.664 8.59267 16.4075 10.3362 16.4075 12.5028C16.4075 14.6694 14.664 16.4071 12.4974 16.4071C10.3307 16.4071 8.59304 14.6694 8.59304 12.5028C8.59304 10.3362 10.3307 8.59267 12.4974 8.59267Z" fill="#E63946"/>
</svg>
