<svg width="25" height="25" viewBox="0 0 25 25" fill="none" xmlns="http://www.w3.org/2000/svg">
<path fill-rule="evenodd" clip-rule="evenodd" d="M24.1891 3.4995C21.0969 8.0969 11.7828 17.3959 11.7828 17.3959L11.7792 17.3922C11.7573 17.4162 11.7375 17.4412 11.7141 17.4646C11.1286 18.049 10.3344 18.2854 9.57135 18.1953C9.81666 19.2224 9.5578 20.35 8.77499 21.1526C8.77499 21.1526 4.85832 25.9959 0.5177 22.9443C0.5177 22.9443 2.85833 22.2886 3.06197 20.4C3.06197 20.4 2.74947 18.4969 4.4677 16.7334C5.23801 15.9427 6.31562 15.6714 7.30364 15.9021C7.22447 15.15 7.46145 14.3709 8.03853 13.7943C8.06145 13.7709 8.08697 13.7511 8.11093 13.7287L8.10728 13.725C8.10728 13.725 17.4156 4.42086 22.0198 1.33283C22.6292 0.896897 23.4802 0.947939 24.0271 1.49429C24.5755 2.04169 24.626 2.89117 24.1891 3.4995ZM8.04999 17.4406C7.66353 17.0542 7.16249 16.8339 6.62655 16.8339C6.08853 16.8339 5.5802 17.0505 5.19739 17.4438C3.87707 18.799 4.07499 20.3521 4.0802 20.4005C3.96666 21.4526 3.3703 22.349 2.74843 22.888C2.96822 22.9281 3.19062 22.9485 3.4177 22.9485C5.89166 22.9485 7.97603 20.5214 7.9953 20.4985C7.99582 20.4985 9.42187 18.813 8.04999 17.4406ZM8.3302 15.6292C8.3302 16.0438 8.48072 16.4344 8.77499 16.7276C9.06926 17.0214 9.47707 17.1917 9.8927 17.1917C10.3083 17.1917 10.6838 17.0219 10.9687 16.7365L11.7781 15.9188C11.8193 15.8766 11.8755 15.8193 11.9208 15.7729L9.73489 13.587C9.68697 13.6334 9.62812 13.6901 9.58541 13.7323L8.77447 14.5328C8.48072 14.8255 8.3302 15.2146 8.3302 15.6292ZM23.2917 2.23231C23.162 2.10263 23.0104 2.08336 22.9307 2.08336C22.8203 2.08336 22.7151 2.11669 22.6 2.19898C19.3614 4.37086 13.2255 10.2026 10.4641 12.8776L12.6302 15.0438C15.3073 12.2854 21.1531 6.14638 23.3427 2.89169C23.4906 2.68648 23.4693 2.40888 23.2917 2.23231Z" fill="#E63946"/>
</svg>
