<svg width="25" height="25" viewBox="0 0 25 25" fill="none" xmlns="http://www.w3.org/2000/svg">
<g clip-path="url(#clip0)">
<path d="M6.4701 6.61346C6.15163 6.34897 5.74138 6.22135 5.32907 6.25853C4.91676 6.2957 4.53595 6.49463 4.26992 6.81182L0.363907 11.499C0.12883 11.7796 0 12.1339 0 12.5C0 12.866 0.12883 13.2203 0.363907 13.5009L4.26992 18.1881C4.40096 18.3468 4.56208 18.4781 4.74403 18.5744C4.92598 18.6707 5.12517 18.7301 5.33014 18.7491C5.53511 18.7682 5.74183 18.7465 5.9384 18.6854C6.13497 18.6243 6.31753 18.5249 6.47557 18.393C6.63361 18.2611 6.76402 18.0992 6.8593 17.9168C6.95458 17.7343 7.01285 17.5348 7.03077 17.3297C7.04869 17.1246 7.02589 16.918 6.9637 16.7218C6.9015 16.5256 6.80113 16.3436 6.66836 16.1863L3.59552 12.5L6.66844 8.8137C6.93381 8.49559 7.06199 8.08511 7.02479 7.67252C6.9876 7.25993 6.78808 6.87899 6.4701 6.61346Z" fill="#E63946"/>
<path d="M14.3675 3.15607C13.9617 3.07923 13.5419 3.16469 13.1984 3.3941C12.8548 3.6235 12.615 3.97852 12.5305 4.38285L9.40569 20.0069C9.36516 20.2081 9.36477 20.4153 9.40454 20.6166C9.44431 20.818 9.52346 21.0095 9.63744 21.1802C9.75143 21.3509 9.898 21.4973 10.0688 21.6112C10.2395 21.7251 10.4311 21.8041 10.6324 21.8438C10.7338 21.8647 10.8371 21.8749 10.9406 21.8743C11.3015 21.8737 11.651 21.7482 11.9297 21.519C12.2085 21.2898 12.3992 20.9712 12.4695 20.6172L15.5943 4.99313C15.6348 4.79192 15.6352 4.58469 15.5955 4.38332C15.5557 4.18196 15.4766 3.99043 15.3626 3.81974C15.2486 3.64904 15.102 3.50255 14.9313 3.38866C14.7605 3.27477 14.5689 3.19573 14.3675 3.15607Z" fill="#E63946"/>
<path d="M24.6361 11.4991L20.7301 6.81187C20.5991 6.65311 20.4379 6.52182 20.256 6.42553C20.074 6.32925 19.8749 6.26988 19.6699 6.25084C19.4649 6.2318 19.2582 6.25346 19.0616 6.31457C18.8651 6.37569 18.6825 6.47506 18.5245 6.60696C18.3664 6.73887 18.236 6.90071 18.1407 7.08319C18.0455 7.26566 17.9872 7.46517 17.9693 7.67025C17.9513 7.87532 17.9741 8.08191 18.0363 8.27814C18.0985 8.47438 18.1989 8.65638 18.3317 8.8137L21.4045 12.5001L18.3316 16.1864C18.1988 16.3437 18.0985 16.5257 18.0363 16.7219C17.9741 16.9181 17.9513 17.1247 17.9692 17.3298C17.9871 17.5349 18.0454 17.7344 18.1407 17.9169C18.2359 18.0993 18.3663 18.2612 18.5244 18.3931C18.6824 18.525 18.865 18.6244 19.0616 18.6855C19.2581 18.7466 19.4648 18.7683 19.6698 18.7492C19.8748 18.7302 20.074 18.6708 20.2559 18.5745C20.4379 18.4782 20.599 18.3469 20.73 18.1882L24.6361 13.5009C24.8712 13.2204 25 12.866 25 12.5C25 12.134 24.8712 11.7796 24.6361 11.4991Z" fill="#E63946"/>
</g>
<defs>
<clipPath id="clip0">
<rect width="25" height="25" fill="white"/>
</clipPath>
</defs>
</svg>
