<svg width="25" height="25" viewBox="0 0 25 25" fill="none"
  xmlns="http://www.w3.org/2000/svg">
  <path class="skill-icon-fill" d="M16.4304 6.71725C16.2171 6.71725 16.0094 6.60809 15.8925 6.4115C15.7259 6.13112 15.5233 5.8709 15.2904 5.63803C14.545 4.89268 13.5541 4.48218 12.5 4.48218C12.1548 4.48218 11.875 4.20237 11.875 3.85718C11.875 3.51199 12.1548 3.23218 12.5 3.23218C13.8879 3.23218 15.1928 3.77268 16.1743 4.75415C16.4806 5.06046 16.7473 5.40321 16.967 5.77284C17.1434 6.06956 17.0458 6.45309 16.7491 6.62944C16.649 6.68894 16.539 6.71725 16.4304 6.71725Z" fill="#E63946"/>
  <path class="skill-icon-fill" d="M12.5001 24.2679C10.3321 24.2679 8.56836 22.5041 8.56836 20.3362C8.56836 19.991 8.84817 19.7112 9.19336 19.7112H11.8403C12.1855 19.7112 12.4653 19.991 12.4653 20.3362C12.4653 20.6814 12.1855 20.9612 11.8403 20.9612H9.8919C10.1742 22.1394 11.2365 23.0179 12.5001 23.0179C13.9788 23.0179 15.1818 21.8149 15.1818 20.3362C15.1818 19.991 15.4616 19.7112 15.8068 19.7112C16.152 19.7112 16.4318 19.991 16.4318 20.3362C16.4318 22.5041 14.668 24.2679 12.5001 24.2679Z" fill="#E63946"/>
  <path class="skill-icon-fill" d="M13.949 20.9612H13.7413C13.3961 20.9612 13.1163 20.6814 13.1163 20.3362C13.1163 19.991 13.3961 19.7112 13.7413 19.7112H13.949C14.2942 19.7112 14.574 19.991 14.574 20.3362C14.574 20.6814 14.2942 20.9612 13.949 20.9612Z" fill="#E63946"/>
  <path class="skill-icon-fill" d="M15.8068 18.5353C15.4616 18.5353 15.1818 18.2555 15.1818 17.9103C15.1818 16.0877 15.9359 14.1091 17.0582 12.9867C18.2758 11.7691 18.9463 10.1503 18.9463 8.42846C18.9463 6.70658 18.2758 5.0878 17.0582 3.87027C15.8407 2.65271 14.2219 1.98218 12.5001 1.98218C10.7782 1.98218 9.1594 2.65274 7.9419 3.87027C6.72433 5.0878 6.05383 6.70662 6.05383 8.42849C6.05383 10.1504 6.72433 11.7691 7.9419 12.9867C8.93693 13.9818 9.64249 15.6497 9.7898 17.2854H13.2918L14.5236 9.58627L13.8155 9.90815C13.6062 10.0033 13.3616 9.97587 13.1786 9.83668L12.5001 9.32074L11.8216 9.83665C11.6386 9.9758 11.394 10.0032 11.1847 9.90812L10.4766 9.58624L11.4506 15.674C11.5051 16.0149 11.273 16.3354 10.9322 16.3899C10.5913 16.4443 10.2708 16.2123 10.2163 15.8715L9.05833 8.6343C9.02196 8.40702 9.11352 8.17812 9.29655 8.03855C9.47961 7.89899 9.72458 7.87137 9.93411 7.96662L11.3621 8.61571L12.1217 8.03808C12.3452 7.86812 12.6548 7.86808 12.8783 8.03808L13.638 8.61571L15.066 7.96662C15.2756 7.87133 15.5206 7.89902 15.7036 8.03855C15.8866 8.17812 15.9781 8.40702 15.9418 8.6343L14.4418 18.0091C14.3933 18.3123 14.1317 18.5353 13.8247 18.5353H9.19336C8.84818 18.5353 8.56836 18.2555 8.56836 17.9103C8.56836 16.4447 7.93318 14.7457 7.05799 13.8706C5.60436 12.4169 4.80383 10.4842 4.80383 8.42849C4.80383 6.37271 5.60436 4.44002 7.05799 2.98643C8.51158 1.53274 10.4443 0.732178 12.5001 0.732178C14.5558 0.732178 16.4885 1.53274 17.9421 2.98643C19.3957 4.44002 20.1963 6.37271 20.1963 8.42849C20.1963 10.4842 19.3957 12.4169 17.9421 13.8706C17.067 14.7458 16.4318 16.4447 16.4318 17.9103C16.4318 18.2555 16.152 18.5353 15.8068 18.5353Z" fill="#E63946"/>
</svg>
