<svg width="30" height="30" viewBox="0 0 30 30" fill="none" xmlns="http://www.w3.org/2000/svg">
<path d="M25.8148 19.4084L16.4393 8.15783C16.2575 7.95635 16.0355 7.79528 15.7876 7.68504C15.5396 7.57479 15.2713 7.51782 15 7.51782C14.7286 7.51782 14.4603 7.57479 14.2124 7.68504C13.9645 7.79528 13.7425 7.95635 13.5607 8.15783L4.18517 19.4084C4.02743 19.5975 3.90845 19.8157 3.83504 20.0507C3.76163 20.2857 3.73522 20.5328 3.75733 20.778C3.77943 21.0232 3.84962 21.2616 3.96387 21.4797C4.07812 21.6978 4.23421 21.8912 4.42322 22.049C4.61223 22.2067 4.83046 22.3257 5.06545 22.3991C5.30044 22.4725 5.54758 22.4989 5.79278 22.4768C6.03797 22.4547 6.27641 22.3845 6.49448 22.2703C6.71256 22.156 6.90599 21.9999 7.06374 21.8109L15 12.2889L22.9362 21.8109C23.094 21.9999 23.2874 22.156 23.5055 22.2703C23.7236 22.3845 23.962 22.4547 24.2072 22.4768C24.4524 22.4989 24.6995 22.4725 24.9345 22.3991C25.1695 22.3257 25.3877 22.2067 25.5767 22.049C25.7658 21.8912 25.9218 21.6978 26.0361 21.4797C26.1504 21.2616 26.2205 21.0232 26.2426 20.778C26.2647 20.5328 26.2383 20.2857 26.1649 20.0507C26.0915 19.8157 25.9725 19.5975 25.8148 19.4084Z" fill="white"/>
</svg>
